<?xml version="1.0" encoding="utf-8"?>
<!-- Generator: Adobe Illustrator 25.2.0, SVG Export Plug-In . SVG Version: 6.00 Build 0)  -->
<svg version="1.1" id="Livello_1" xmlns="http://www.w3.org/2000/svg" xmlns:xlink="http://www.w3.org/1999/xlink" x="0px" y="0px"
	 viewBox="0 0 595.28 841.89" style="enable-background:new 0 0 595.28 841.89;" xml:space="preserve">
<g>
	<g>
		<g>
			<path style="fill:#ffb84d;" d="M58.19,89.5c0.14,0.05,0.28,0.07,0.42,0.07c0.53,0,1.03-0.33,1.22-0.86
				c0.23-0.66-0.12-1.39-0.79-1.62C30.92,77.43,37.02,55.24,37.3,54.3c0.2-0.67-0.2-1.38-0.88-1.58c-0.68-0.2-1.39,0.19-1.59,0.87
				C34.75,53.84,27.72,79.03,58.19,89.5z"/>
			<path style="fill:#ff9f0d;" d="M58.62,93.29c-0.56,0-1.1-0.09-1.63-0.27l0,0c-33.88-11.63-25.82-40.2-25.73-40.49
				c0.78-2.62,3.55-4.14,6.2-3.39c1.29,0.37,2.36,1.22,3.01,2.4c0.64,1.17,0.79,2.52,0.42,3.8c-0.58,2-4.98,19.86,19.37,28.22
				c1.27,0.43,2.29,1.34,2.88,2.54c0.59,1.2,0.66,2.56,0.22,3.83C62.65,91.94,60.75,93.29,58.62,93.29z M57.83,90.61
				C57.83,90.62,57.83,90.62,57.83,90.61C57.83,90.62,57.83,90.61,57.83,90.61z M33.72,53.26c0,0.01,0,0.01-0.01,0.02
				C33.71,53.27,33.71,53.27,33.72,53.26z"/>
		</g>
		<g>
			<path style="fill:#ffb84d;" d="M278,243.81c0.64,0.29,1.41,0.01,1.71-0.62c0.66-1.42,3.1-5.47,5.55-5.47c0,0,0,0,0,0
				c1.66,0,3.41,1.89,5.07,5.46c0.22,0.47,0.71,0.75,1.21,0.74c0.52-0.02,0.98-0.34,1.16-0.82c0.78-2.03,3.07-6.23,5.13-6.23
				c1.45,0,3.15,2.27,4.67,6.23c0.19,0.48,0.65,0.81,1.17,0.82c0.48-0.04,1-0.29,1.21-0.76c0.82-1.85,3.11-5.61,5.03-5.61
				c0.02,0,0.04,0,0.05,0c1.29,0.05,2.73,2.06,3.96,5.52c0.19,0.52,0.68,0.85,1.21,0.85c0.14,0,0.28-0.02,0.43-0.07
				c0.67-0.23,1.02-0.96,0.79-1.62c-1.69-4.77-3.75-7.13-6.29-7.22c-2.78-0.08-4.91,2.58-6.23,4.7c-1.77-3.61-3.74-5.37-6-5.37
				c-2.9,0-5.13,3.11-6.4,5.44c-1.84-3.05-3.91-4.6-6.17-4.6c-4.53,0-7.56,6.24-7.89,6.95C277.07,242.77,277.35,243.52,278,243.81z"
				/>
			<path style="fill:#ff9f0d;" d="M315.13,247.66c-2.12,0-4.02-1.34-4.73-3.33c-0.29-0.82-0.56-1.46-0.8-1.94
				c-0.48,0.67-0.97,1.51-1.32,2.3c-0.75,1.68-2.41,2.82-4.34,2.97c-2.41-0.03-4.2-1.29-4.93-3.2c-0.51-1.32-0.96-2.24-1.32-2.86
				c-0.54,0.8-1.13,1.87-1.52,2.87c-0.72,1.87-2.49,3.13-4.5,3.2c-2.05,0.13-3.89-1.08-4.73-2.9c-0.77-1.65-1.39-2.53-1.78-2.98
				c-0.68,0.66-1.59,1.94-2.08,3c-1.16,2.49-4.13,3.59-6.64,2.44c-1.22-0.56-2.15-1.56-2.62-2.82c-0.46-1.25-0.41-2.61,0.15-3.83
				c0.71-1.53,4.59-9.11,11.27-9.11c1.64,0,3.77,0.47,5.94,2.28c2.41-2.49,4.81-3.12,6.63-3.12c2.37,0,4.48,0.98,6.33,2.93
				c1.86-1.56,3.85-2.25,6.02-2.26c6.33,0.24,8.86,7.36,9.69,9.7c0.45,1.27,0.37,2.63-0.21,3.83c-0.58,1.21-1.6,2.11-2.87,2.56
				C316.29,247.56,315.72,247.66,315.13,247.66z M296.78,240.34L296.78,240.34L296.78,240.34z"/>
		</g>
		<g>
			<g>
				<path style="fill:#ffb84d;" d="M369.27,96.83c-16.9,0-30.64,13.61-30.64,30.34c0,16.73,13.75,30.33,30.64,30.33
					s30.64-13.61,30.64-30.33C399.91,110.44,386.17,96.83,369.27,96.83z M369.27,154.95c-15.48,0-28.07-12.47-28.07-27.79
					c0-15.32,12.59-27.79,28.07-27.79c15.48,0,28.07,12.47,28.07,27.79C397.34,142.49,384.75,154.95,369.27,154.95z"/>
				<path style="fill:#ff9f0d;" d="M369.27,174.28c-26.15,0-47.42-21.13-47.42-47.11s21.27-47.11,47.42-47.11
					c26.15,0,47.42,21.13,47.42,47.11S395.42,174.28,369.27,174.28z M369.27,116.15c-6.23,0-11.3,4.94-11.3,11.01
					s5.07,11.01,11.3,11.01c6.23,0,11.3-4.94,11.3-11.01S375.5,116.15,369.27,116.15z"/>
			</g>
		</g>
		<g>
			<path style="fill:#ffb84d;stroke:#ff9f0d;stroke-width:2;stroke-miterlimit:10;" d="M191.85,126.6"/>
		</g>
		<g>
			<path style="fill:#ffb84d;" d="M582.56,67.6c-0.52-0.47-1.31-0.44-1.79,0.07c-0.48,0.5-0.46,1.3,0.03,1.79
				c0.04,0.04,1.06,1.06,0.73,3.13c-0.49,3.08-4.22,9.65-23.37,19.43c-1.2-3.17-2.57-5.86-4.09-7.88c-1.19-1.58-2.56-4-4.19-7.02
				c27.14-21.96,33.01-35.62,33.1-43.22c0.07-5.35-2.68-7.74-2.8-7.83c-0.54-0.46-1.35-0.39-1.81,0.14c-0.46,0.53-0.4,1.34,0.14,1.8
				c0.02,0.02,1.95,1.76,1.9,5.86c-0.09,7.03-5.73,19.82-31.76,40.96c-0.1-0.19-0.19-0.36-0.3-0.55c-2.57-4.8-5.63-10.52-9.41-16.55
				c9.22-6.85,14.04-13.59,14.31-20.04c0.26-6.05-3.65-9.47-3.82-9.61c-0.54-0.46-1.35-0.4-1.81,0.13c-0.46,0.53-0.41,1.34,0.13,1.8
				c0.03,0.03,3.14,2.74,2.93,7.57c-0.23,5.53-4.77,11.73-13.12,17.98c-13.35-20.61-35.16-43.91-74.04-46.28
				c-43.29-2.64-45.01-2-56.22,2.21c-4.71,1.77-11.16,4.19-23.47,7.26c-38.33,9.58-68.79,66.06-73.56,75.33
				c-3.32-21.12-15.92-36.29-29.21-52.26c-14.13-16.99-33.75-26.31-72.4-34.4c-39.63-8.3-94.96,18.95-97.24,20.08
				C98.2,33.26,87.46,43.77,79.13,54.82C67.54,46.8,73.8,29.28,73.87,29.1c0.24-0.66-0.1-1.39-0.77-1.63
				c-0.67-0.24-1.41,0.1-1.65,0.76c-0.07,0.2-7.01,19.53,6.16,28.66c-3.21,4.44-6.04,8.92-8.48,13.17
				c-28.07-9.4-17.45-49.34-17.34-49.74c0.19-0.68-0.22-1.38-0.9-1.56c-0.69-0.19-1.39,0.21-1.58,0.89
				c-0.12,0.42-11.24,42.22,18.56,52.65c-6.61,11.94-10.08,21.64-10.45,22.72c-0.64,1.58-19.23,48.76,0.01,96.78
				C73.4,231.68,77.48,234.04,91,241.85c3.14,1.81,6.69,3.86,11.06,6.77c9.76,6.5,26.79,9.52,45.55,10.41
				c-8.68,7.72-39.29,35.97-55.28,64.17c-1.91,0.93-10.32,5.4-13.02,13.67c-1.6,4.91-0.84,10.18,2.21,15.66
				c-4.55,9.88-66.01,143.96-71.14,194.84C4.96,601.17-0.2,693.41,25.93,708.56c1.88,3.6,17.48,30.19,80.89,58.37
				c16.36,7.27,31.03,10.03,43.88,10.02c35.42,0,56.92-20.93,61.53-25.92c11.46,11.19,16.19,13.77,18.47,13.93l2.64,55.7
				c-18.75,5.14-19.74,14.42-19.77,14.82c-0.03,0.38,0.11,0.76,0.39,1.03c0.24,0.23,0.56,0.35,0.89,0.35c0.06,0,0.11,0,0.17-0.01
				l26.89-3.5c3.94,0.18,7.33-1.19,9.56-3.82c1.79-2.11,2.53-4.75,2.03-6.91l-5.11-49.58c7.62,6.49,30.95,25.59,47.1,30.48
				c1.26,0.86,8.01,5.07,19.13,5.07c8.12,0,18.57-2.24,30.91-9.66c12.28-7.39,31.12-26.75,36.97-32.9c0.03,0.71-0.02,1.43-0.15,2.15
				l-10.4,57.43c-0.39,2.16,0.17,4.39,1.54,6.12c1.37,1.72,3.43,2.79,5.64,2.92l36.94,2.21c0.03,0,0.05,0,0.08,0
				c0.67,0,1.24-0.52,1.28-1.19c0.74-11.68-21.97-16.95-27.66-18.09l7.93-51.7c0.45-3.87-0.48-7.72-2.62-10.98l5.66-6.82
				c0.04-0.05,0.08-0.1,0.11-0.15c1.5-2.48,2.97-4.92,4.43-7.34c4.61,9.17,25.14,13.12,27.59,13.57c16.89,8.8,44.71,6.69,47.2,6.48
				c2.42,0.3,4.81,0.43,7.16,0.43c27.39,0,49.78-18.37,50.68-19.14c23.7-15.21,28.01-27.68,32.58-40.88
				c1.06-3.08,2.16-6.26,3.53-9.53c7.17-17.18-2.21-84.42-2.94-89.53c2.1-11.61-7.71-81.94-8.39-86.85
				c5.18-41.12-38.66-138.3-40.5-142.34c-28.97-77.54-73.7-113.54-78.97-117.57c-0.04-2.91-0.83-5.58-1.44-7.21
				c13.55-1.61,25.09-3.38,29.71-4.11c19.92-3.17,34.11-14.7,35.71-16.04c26.13-12.75,38.21-31.77,48.88-48.54l1.06-1.67
				c9.51-14.93,9.55-59.82,1.84-83.22c15.74-7.99,24.19-15.26,25.08-21.61C584.47,70.15,583.3,68.28,582.56,67.6z M103.5,246.51
				c-4.43-2.95-8.03-5.03-11.2-6.86c-12.93-7.47-16.84-9.73-32.49-48.79c-19.08-47.62-0.2-94.45-0.01-94.91
				c0.01-0.02,0.02-0.04,0.03-0.07c0.18-0.51,18.09-50.98,52.67-66.08C113,29.55,155.9,8.42,192.58,8.42
				c5.36,0,10.6,0.45,15.54,1.49c38.01,7.96,57.23,17.05,71.04,33.64c16.15,19.42,30.1,36.18,29.35,63.58c0,0.08,0,0.16,0.02,0.24
				c0.06,0.4,6.18,40.07-13.22,78.11c-19.55,38.33-43.57,59.84-73.45,65.75c-16.94,3.35-45.28,6.31-70.85,5.46
				c-0.08-0.01-0.16-0.01-0.24-0.01C131.29,256.01,113.44,253.12,103.5,246.51z M136.9,272.55c-0.41,1.02-0.67,2.11-0.71,3.27
				c-0.35,9.28,9.91,15.28,28.26,16.63c-3.46,0.55-8.4,1.21-14.87,1.94c-1.62,0.18-3.15,0.69-4.55,1.5
				c-2.53,1.47-6.07,3.9-8.57,7.13c-0.88,1.13-0.51,2.1-0.32,2.47c0.47,0.86,1.88,1.48,3.9,1.91c-13.72,1.78-30.3,5.4-42.9,12.74
				C108.36,301.99,124.96,284.24,136.9,272.55z M81.76,337.66c2.63-8.07,11.92-12.28,12.02-12.32c0.02-0.01,0.04-0.03,0.07-0.04
				c0.03-0.02,0.06-0.04,0.1-0.05c0.02-0.02,0.05-0.03,0.07-0.04c22.81-16.58,67.39-16.97,71.38-16.97c0.21,0,0.28,0,0.3,0
				c0.39,0,0.73-0.18,0.97-0.46c0.34-0.02,0.69-0.04,1.02-0.07c0.71-0.05,1.25-0.66,1.2-1.36c-0.05-0.7-0.68-1.23-1.37-1.19
				c-12.34,0.82-26.49,0.75-28.9-0.74c2.37-2.98,5.84-5.25,7.72-6.34c1.09-0.63,2.28-1.03,3.54-1.17
				c22.87-2.57,22.83-3.52,22.79-4.94c-0.05-1.5-1.68-1.73-5.38-1.91c-6.8-0.32-28.96-2.29-28.51-14.15
				c0.34-9.11,17.9-13.49,18.08-13.53c0.69-0.17,1.11-0.86,0.94-1.54c-0.17-0.68-0.87-1.1-1.55-0.93c-0.4,0.1-5.2,1.29-10,3.81
				c2.6-2.38,4.4-3.95,5.09-4.55c3.02,0.1,6.07,0.15,9.13,0.15c23.11,0,46.93-2.64,61.91-5.6c30.7-6.08,55.31-28.03,75.24-67.1
				c1.38-2.71,2.62-5.43,3.76-8.14c0.06,11.28,2.53,31.5,18.21,41.49c0.62,0.45,18.06,13.06,27.02,18.73
				c9,5.69,30.79,9.84,32.86,10.22c4.12,1.62,11.11,2.25,19.47,2.25c12.04,0,26.93-1.3,40.24-2.83c0.9,2.22,3.01,8.58-0.23,12.94
				c-3.45,4.64-27.72,10.85-36.78,12.85c-0.67,0.15-1.1,0.79-0.99,1.46c0.11,0.67,0.74,1.13,1.42,1.05
				c0.2-0.02,19.72-2.21,29.3-0.02c1.61,0.37,3.62,1.11,4.07,2.57c0.58,1.89-1.38,4.53-2.18,5.39c-0.22,0.24-0.35,0.55-0.35,0.87
				v2.1c-0.15-0.06-0.32-0.1-0.49-0.1l-39.54,0.01c-2.01,0.22-5.69,2.16-5.21,7.91l0.51,6.04c0.02,0.18,0.07,0.36,0.16,0.52
				c0.98,1.73,4.23,4.44,9.49,2.32c2.81-1.14,16.87-1.33,29.77-1.02c1.09,1.03,3.04,3.33,2.95,5.41c-0.05,1.11-0.68,2.08-1.92,2.95
				c-3.74,2.63-8.48,1.34-8.52,1.32c-0.07-0.02-0.13-0.03-0.2-0.04l-16.55-2.01c-0.69-0.07-1.31,0.38-1.43,1.05
				c-0.12,0.67,0.32,1.31,0.99,1.46c6.09,1.32,14.54,4.58,14.24,7.69c-0.14,1.49,0.23,2.99,0.62,4.57
				c1.15,4.63,2.34,9.42-8.86,15.57c-6.83,3.75-15.36,5.62-22.77,6.55c-4.03-0.38-9.59-0.26-17.21,0.85
				c-0.66,0.1-1.13,0.67-1.1,1.32c0.03,0.65,0.56,1.18,1.22,1.21c0.56,0.03,8.05,0.36,17.36-0.81c6.74,0.74,7.92,2.98,7.92,2.98
				c0.03,0.09,0.08,0.18,0.13,0.26c6.35,10.01,4.49,15.89,2.35,22.71l-0.2,0.64c-1.48,4.71-12.37,8.87-18.69,10.77
				c-1.37,0.36-2.18,0.6-2.45,0.68l-204.39,23.49c-5.7,0.18-13.08-0.55-18.17-4.58c-4.09-3.23-6.15-8.21-6.13-14.77
				c0.02-6.99,2.16-12.22,6.38-15.54c8.66-6.83,23.38-3.62,23.53-3.59c0.7,0.16,1.38-0.27,1.54-0.96c0.11-0.47-0.08-0.93-0.42-1.22
				c0.27-0.24,0.45-0.57,0.45-0.96c-0.01-0.7-0.56-1.23-1.3-1.26c-0.33-0.02-28.57,0.12-30.18-18.09
				c-0.43-4.79,0.76-8.81,3.52-11.94c5.98-6.79,17.47-7.43,17.59-7.43c0.71-0.03,1.26-0.63,1.22-1.33c-0.04-0.7-0.64-1.26-1.35-1.21
				c-0.46,0.02-10.23,0.56-17.1,6.12c-0.08-0.03-0.16-0.07-0.25-0.08c-8.27-0.85-8.54-10.62-8.41-13.74
				c12.37-2.16,23.06-3.33,23.29-3.36c0.71-0.08,1.22-0.7,1.14-1.4c-0.08-0.7-0.7-1.2-1.42-1.13c-2.02,0.22-49.72,5.44-60.57,15.04
				c-11.28,9.97-10.28,15.69-5.71,30.76c3.55,11.73,17,40.55,22.61,52.39c1.54,3.25,0.78,7.06-1.88,9.49
				c-0.7,0.52-5.73,4.29-12.31,11.18l-8.5,7.71c-2.4-9.02,3.6-18.45,7.57-23.44c2.19-2.75,2.78-6.39,1.57-9.73
				c-4.37-12.12-15.48-41.92-24.26-56.91C81.11,346.81,80.33,342.03,81.76,337.66z M445.45,376.67l13.35,17.35
				c0.49,0.64,0.73,1.44,0.66,2.24l-0.64,7.16c-2.7-2.16-8.02-6.2-14.65-10.14c-6.32-5.43-10.11-10.86-10.16-10.94
				c-0.05-0.07-0.1-0.13-0.15-0.18c-1.71-1.7-2.05-2.88-2.04-3.57c0.02-0.71,0.42-1.09,0.42-1.09c0.16-0.13,0.28-0.29,0.36-0.47
				c0.96-2.13,23.47-52.34,25-61.45c1.44-8.57-1.04-10.6-4.7-12.55l-0.77-0.41c-4.25-2.35-49.27-2.97-54.74-0.76
				c-3.81,1.55-5.63-0.33-6.14-1.01l-0.48-5.72c-0.39-4.59,2.6-5.13,2.78-5.16h39.4c0.42,0,0.78-0.22,1.01-0.53
				c0.22,0.17,0.48,0.28,0.76,0.28c0.01,0,0.01,0,0.02,0c0.18,0,19.71-0.18,26.63,5.26c2.27,1.78,3.91,2.47,5,2.92
				c2.02,0.84,2.14,0.89,3.16,12.3c1.01,11.3-12,38.44-24.5,60.07C443.86,372.3,444.02,374.81,445.45,376.67z M436.58,459.19
				L85.52,487.84c-0.71,0.06-1.24,0.67-1.18,1.37c0.06,0.67,0.62,1.17,1.28,1.17c0.04,0,0.07,0,0.11-0.01L437.2,461.7
				c0.71-0.06,1.23-0.67,1.18-1.37c-0.04-0.5-0.38-0.9-0.82-1.07c2.92-0.5,34.46-5.9,43.07-5.23c0.07,0,0.13,0,0.2,0l6.86-0.5
				c0.04,0,0.06-0.02,0.1-0.03c0.04-0.01,0.08,0,0.12-0.01c0.13-0.03,13.05-3.13,26.24,0.99c12.91,4.02,16.22,10.59,16.25,10.64
				c0.05,0.1,0.11,0.2,0.18,0.28c0.07,0.09,7.41,8.95,4.83,18.74c-0.03,0.1-0.04,0.21-0.04,0.32c0,0.12-0.25,12.6-15.13,28.54
				l-46.26,45.54c-0.34,0.33-0.46,0.82-0.33,1.27c4.34,14.33-5.42,29.14-5.52,29.29c-0.01,0.01-0.01,0.03-0.02,0.04
				c-0.01,0.01-0.02,0.02-0.03,0.03c-0.63,1.1-1.74,1.24-2.55,1.01c-0.82-0.23-1.76-0.98-1.7-2.31l0.11-2.48
				c0.61-0.11,1.08-0.61,1.07-1.24c-0.01-0.58-0.42-1.05-0.96-1.2l1.17-25.33c0.15-3.24,1.66-6.32,4.13-8.43
				c7.51-6.41,21.03-18.07,27.26-24.05c8.69-8.35,19.36-28.16,19.78-28.95c0.35-0.59,8.51-14.5-0.15-24.14
				c-6.12-6.81-16.46-8.35-21.97-8.67c-0.34-0.57-1.07-0.81-1.68-0.51c-0.2,0.1-0.35,0.26-0.47,0.43c-0.61-0.01-1.07,0-1.33,0.01
				c-9.29-2.64-48.07,4.99-49.73,5.32c-0.7,0.14-1.15,0.81-1.01,1.5c0.14,0.69,0.81,1.13,1.51,1c11.22-2.22,41.83-7.52,48.66-5.32
				c0.15,0.05,0.3,0.08,0.45,0.06c0.03,0,0.76-0.03,1.95,0.01c8.49,17.87,6.36,37.24,4.16,47.68c-0.07-0.01-0.14-0.03-0.21-0.02
				L86.52,530.55c-0.03-8.52,0.37-15.53,0.38-15.68c0.01-0.19-0.03-0.37-0.09-0.53l33.34-5.85c0.7-0.12,1.17-0.78,1.04-1.48
				c-0.12-0.69-0.79-1.15-1.49-1.03l-40.09,7.04c-2.33,0.41-4.5,1.39-6.29,2.83c-4.23,3.41-11.14,10.05-9.94,16.26
				c0.15,0.79,0.28,1.56,0.4,2.32c1.12,6.83,2.18,13.28,21.2,23.75c16.94,9.32,42.4,30.35,49.8,36.57c1.61,1.35,2.53,3.33,2.54,5.44
				c0.08,20.49,0.83,27.82,1.56,30.56c-0.55,0.13-1.09,0.09-1.64-0.14c-2.83-1.21-7.18-7.34-11.87-29.64
				c-1.96-9.3-28.93-20.98-32.75-22.59l-28.66-22.26c-14.66-12.7-14.06-21.41-13.3-32.45l0.02-0.23
				c0.69-10.08,19.5-16.04,19.55-16.07l12.96-2.45c0,0,0.01,0,0.01,0c0,0,0,0,0,0l36.97-6.98c0.7-0.13,1.16-0.8,1.02-1.49
				c-0.13-0.69-0.81-1.15-1.51-1.01l-35.68,6.75c-0.55-3.86-1.8-16.23,2.22-29.88l396.8-30.9c1.65,4.61,2.56,7.96,2.98,9.71
				l-5.29,0.39c-9.48-0.68-42.45,5.06-43.86,5.31c-0.7,0.12-1.17,0.78-1.04,1.48C435.9,458.7,436.2,459.03,436.58,459.19z
				 M122.68,645.66c-0.11,0-0.2,0.04-0.3,0.07c-2.21-3.26-4.32-6.76-6.34-10.39l349.8-11.76c-1.43,3.05-2.92,6.21-4.49,9.46
				c-0.2-0.11-0.43-0.19-0.69-0.18L122.68,645.66z M460.2,635.43c-3.3,6.78-6.92,13.99-10.89,21.65l-305.31,13.1
				c-4.19-5.06-6.72-8.17-6.8-8.26c-0.07-0.09-0.16-0.17-0.25-0.24c-4.53-3.2-8.85-7.93-12.88-13.53L460.2,635.43z M114.68,632.84
				c-10.75-20.16-18.32-43.42-20.69-51.11c9.45,4.22,27.55,13.46,28.87,19.74c3.7,17.6,7.57,27.45,12.06,30.69L114.68,632.84z
				 M141.75,631.93c0.03-0.07,0.08-0.13,0.1-0.21c0.02-0.08,0.01-0.16,0.02-0.25c0-0.08,0.02-0.16,0.01-0.24
				c-0.01-0.08-0.05-0.16-0.08-0.24c-0.03-0.07-0.03-0.15-0.08-0.22c0-0.01-0.01-0.01-0.01-0.01c0,0,0-0.01-0.01-0.01
				c-0.02-0.03-0.04-0.04-0.06-0.07c-0.06-0.09-0.12-0.17-0.2-0.24c-0.35-0.95-1.43-5.85-1.53-30.27c-0.01-2.85-1.27-5.53-3.45-7.37
				c-1.49-1.26-3.37-2.82-5.49-4.56l330.39-2.79l-0.11,2.3c-0.11,2.28,1.32,4.24,3.56,4.88c0.47,0.13,0.93,0.2,1.39,0.2
				c1.64,0,3.14-0.84,4.03-2.29c0.01-0.01,0.03-0.02,0.04-0.03c0.43-0.63,10.22-15.45,6.06-30.69l17.85-17.58
				c-0.7,7.61-4.75,30.35-27.12,78.76L141.75,631.93z M495.34,522.78c-0.17,0.18-0.35,0.35-0.52,0.52
				c-2.7,2.59-6.8,6.27-11.18,10.13L87.23,546.36c-0.43-4.23-0.62-8.86-0.69-13.26l409.68-17.01c-0.78,3.21-1.44,5.11-1.46,5.19
				C494.55,521.86,494.82,522.48,495.34,522.78z M480.62,536.08c-4.72,4.12-9.48,8.21-12.95,11.17c-3.01,2.57-4.84,6.3-5.02,10.25
				l-0.37,8.05l-352.52,4.97c-0.36,0.01-0.68,0.16-0.91,0.39c-6.51-4.81-13.19-9.44-19.19-13.02c-0.97-2.23-1.65-5.38-2.13-9
				L480.62,536.08z M462.16,568.1l-0.68,14.8l-332.41,2.8c-0.31,0-0.59,0.13-0.81,0.32c-4.77-3.88-10.52-8.44-16.56-12.98
				L462.16,568.1z M497.83,520.04c2.07-7.14,7.8-31.48-2.26-54c5.34,0.49,13.79,2.16,18.76,7.69c7.4,8.25-0.07,21.02-0.17,21.2
				C514.06,495.11,505.59,510.82,497.83,520.04z M86.28,555.95c-0.01-0.01-0.02-0.01-0.03-0.02c-17.94-9.87-18.85-15.45-19.91-21.93
				c-0.13-0.78-0.26-1.58-0.42-2.39c-0.99-5.09,5.99-11.34,9.03-13.8c1.45-1.17,3.22-1.96,5.12-2.3l4.27-0.75
				C84.23,516.45,82.73,543.06,86.28,555.95z M87.06,469.66c1.36-3.98,3.19-8.02,5.64-11.96c5.66-9.11,11.7-16.34,16.79-21.67
				l3.48-3.16c0.24,0.25,0.56,0.4,0.92,0.4c0.04,0,0.08,0,0.12,0l340.17-30.15c2.98,2.22,4.78,3.75,4.85,3.81
				c0.01,0.01,0.02,0.01,0.03,0.02c0.01,0.01,0.01,0.02,0.02,0.02c0.14,0.11,13.8,10.79,19.7,23.92c1.32,2.93,2.41,5.61,3.33,8.02
				L87.06,469.66z M148.92,337.22c-0.01,0.01-0.01,0.01-0.02,0.02c-3.25,3.68-4.64,8.34-4.15,13.85
				c1.08,12.12,12.16,17.04,21.15,19.04c-4.6,0.36-9.71,1.6-13.8,4.81c-4.86,3.83-7.33,9.73-7.36,17.53
				c-0.02,7.39,2.37,13.03,7.1,16.78c0.2,0.16,0.42,0.28,0.63,0.43c-12.61,0.67-22.17,6.3-27.8,10.69c0.84-2.54,0.74-5.35-0.47-7.9
				c-5.59-11.8-18.97-40.48-22.48-52.04c-4.5-14.84-5.25-19.09,4.96-28.12c5.13-4.53,19.8-8.12,33.25-10.58
				C139.8,327.17,141.54,335.36,148.92,337.22z M157.09,412.21c4.24,1.7,8.91,2.23,12.98,2.23c0.43,0,0.86-0.01,1.28-0.02
				c0,0,0.01,0,0.01,0c0.02,0,0.05,0,0.07,0c5.06-0.14,8.89-0.98,9.23-1.06c0,0,0,0,0,0l195.74-22.5c0.03,0,0.05-0.02,0.08-0.03
				c0.03-0.01,0.06,0,0.09,0c0.4-0.1,1.37-0.36,2.72-0.76c4.91-1.27,16.37-3.82,32.11-4.74c10.36-0.61,22.13,4.67,31.37,10.15
				c2.22,1.88,4.73,3.74,7.51,5.41L115.5,430.58l3.54-3.21c0.02,0.02,0.03,0.05,0.06,0.07c0.24,0.2,0.54,0.3,0.83,0.3
				c0.37,0,0.73-0.15,0.98-0.45C121.05,427.12,135.05,411.15,157.09,412.21z M397.23,352.28c-0.25-0.54-1.11-1.89-3.76-3.01
				c5.87-1.15,11.98-2.98,17.22-5.86c12.93-7.09,11.3-13.63,10.11-18.4c-0.34-1.37-0.66-2.66-0.56-3.72c0.26-2.7-2.05-4.85-5.03-6.5
				l4.8,0.58c0.85,0.22,6.15,1.42,10.62-1.72c1.91-1.34,2.92-3,3-4.92c0.09-2.06-0.95-4-2.02-5.42c9.65,0.31,17.94,0.89,19.25,1.55
				l0.81,0.43c2.79,1.48,4.63,2.45,3.38,9.88c-1.43,8.5-23.07,56.93-24.72,60.62c-0.38,0.41-1.03,1.29-1.09,2.63
				c-0.09,1.74,0.82,3.58,2.7,5.47c0.34,0.49,1.75,2.44,4.06,5.02c-7.85-3.76-16.6-6.57-24.74-6.1c-7.31,0.43-13.72,1.2-19.01,2.05
				c3.52-1.98,6.47-4.4,7.35-7.19l0.2-0.64C402.03,369.92,404.14,363.22,397.23,352.28z M107.88,764.6
				c-65.73-29.21-79.67-57.22-79.81-57.5c-0.12-0.24-0.31-0.44-0.54-0.57C1.35,692.21,8.61,590.63,12.94,547.61
				c4.89-48.5,61.69-173.89,70.13-192.31c8.46,15.37,18.69,42.82,22.83,54.31c0.9,2.51,0.47,5.23-1.17,7.3
				c-4.58,5.76-11.63,17.03-7.35,27.76c0.13,0.33,0.41,0.57,0.75,0.69c-2.54,3.31-5.12,6.98-7.62,11
				c-12.14,19.52-9.86,40.9-9.04,46.27l-11.87,2.24c-0.84,0.26-20.67,6.55-21.49,18.36l-0.02,0.23c-0.78,11.27-1.45,21,14.23,34.58
				l28.52,22.16c1.74,5.98,19.57,65.7,44.47,83.46c0.51,0.62,2.74,3.36,6.19,7.53c-0.03,0.12-0.07,0.25-0.06,0.38
				c0.03,0.68,0.6,1.22,1.29,1.22c0.02,0,0.04,0,0.06,0l0.04,0c8.37,10.1,22.57,27.04,37.08,43.52
				c13.33,15.13,23.17,25.64,30.5,32.93C204.75,755.4,168.13,791.37,107.88,764.6z M229.9,747.86l0.69,14.47
				c-1.81-0.23-8.4-3.68-31.78-28.88h33.08c0.71,0,1.29-0.57,1.29-1.27c0-0.7-0.58-1.27-1.29-1.27h-35.43
				c-4.44-4.83-9.43-10.38-15.07-16.79c-9.15-10.4-18.16-20.96-25.63-29.84l109.15-2.28l-31.75,52.94
				C230.81,738.84,229.69,743.31,229.9,747.86z M250.97,823.04c0.35,1.52-0.21,3.38-1.46,4.86c-1,1.18-3.33,3.13-7.58,2.91
				c-0.08-0.01-0.16,0-0.23,0.01l-24.98,3.25c1.29-2.65,5.39-7.88,18.3-11.21c0.59-0.15,0.99-0.69,0.96-1.29l-3.5-73.82
				c-0.19-4.05,0.81-8.03,2.9-11.51l32.83-54.73c0.36-0.61,0.16-1.39-0.45-1.74c-0.58-0.34-1.31-0.17-1.7,0.37
				c-0.23-0.4-0.66-0.68-1.14-0.68l-111.26,2.32c-2.83-3.37-5.39-6.44-7.61-9.11l301.91-12.96c-1.83,3.51-3.74,7.12-5.72,10.83
				c-0.26-0.27-0.61-0.44-0.98-0.41l-97.6,4.56c-0.71,0.03-1.26,0.63-1.22,1.33c0.03,0.68,0.6,1.21,1.28,1.21c0.02,0,0.04,0,0.06,0
				l97.31-4.55c-8.69,16.18-18.81,34.17-30.56,54.09c0.02-0.08,0.05-0.15,0.05-0.24c0-0.7-0.58-1.27-1.29-1.27h-35.64
				c-0.41,0-0.76,0.2-0.99,0.5l-40.5-52.46c-0.43-0.56-1.24-0.67-1.8-0.24c-0.56,0.43-0.67,1.23-0.24,1.78l1.36,1.76
				c-0.13-0.04-0.27-0.06-0.41-0.05l-54.14,3.04c-0.05,0-0.1,0.03-0.15,0.04c-0.09,0.02-0.17,0.03-0.26,0.07
				c-0.08,0.03-0.14,0.07-0.21,0.11c-0.07,0.04-0.14,0.09-0.2,0.15c-0.06,0.06-0.11,0.13-0.16,0.2c-0.03,0.04-0.07,0.07-0.09,0.12
				l-29.83,56.65c-2.05,3.89-2.96,8.25-2.64,12.66l2.11,20.46c0,0,0,0.01,0,0.01L250.97,823.04z M252.23,733.45
				c0.02,0,0.04,0,0.05,0l103.7-4.15c0.04,0,0.07-0.02,0.11-0.03l6.97,8.91c-0.11-0.02-0.23-0.05-0.35-0.05l-116,7.12
				c-0.25,0.02-0.47,0.12-0.66,0.26c0.29-2.58,1.05-5.09,2.27-7.42l2.79-5.3C251.33,733.17,251.75,733.45,252.23,733.45z
				 M344.2,796.76c-28.95,17.41-47.19,4.72-47.37,4.59c-0.12-0.08-0.25-0.15-0.39-0.19c-12.26-3.64-29.48-16.38-39.84-24.68h111.93
				C360.75,783.98,351.25,792.52,344.2,796.76z M370.64,774.41c-0.24-0.29-0.58-0.49-0.99-0.49H253.46
				c-2.73-2.25-4.67-3.92-5.44-4.59l-2.06-19.99c-0.05-0.63-0.05-1.27-0.04-1.9c0.23,0.21,0.54,0.34,0.87,0.34c0.03,0,0.05,0,0.08,0
				l116-7.12c0.66-0.04,1.16-0.58,1.19-1.22l16.36,20.9c0.63,0.8,1.11,1.69,1.47,2.62C380.47,764.46,376.15,769.01,370.64,774.41z
				 M395.17,765.54l-8.11,52.87c-0.11,0.68,0.36,1.33,1.05,1.45c7.27,1.25,25.45,6.17,26.71,14.37l-35.52-2.12
				c-1.48-0.09-2.86-0.8-3.77-1.96c-0.92-1.15-1.29-2.65-1.03-4.09l10.4-57.43c0.63-3.47-0.26-7.06-2.44-9.85l-46.86-59.85
				c-0.43-0.55-1.24-0.66-1.81-0.23c-0.56,0.43-0.66,1.23-0.23,1.79l20.61,26.32l-102,4.08c-0.03,0-0.05,0.02-0.08,0.02l25.72-48.85
				l53.41-3c0.68-0.04,1.2-0.6,1.2-1.27l60.05,77.78C394.62,758.46,395.58,762.02,395.17,765.54z M398.72,746.53l-5.18,6.24
				l-12.91-16.72c0.07,0.01,0.13,0.04,0.21,0.04h24.16C402.94,739.52,400.86,742.99,398.72,746.53z M405.69,733.54h-24.86
				c-0.66,0-1.19,0.5-1.26,1.14l-5.32-6.9h35.05c0.31,0,0.58-0.12,0.81-0.3c-1.22,2.07-2.47,4.17-3.73,6.28
				C406.18,733.64,405.95,733.54,405.69,733.54z M442.97,258.27c8.88,7.15,49.75,42.94,76.86,115.5
				c0.46,1,45.54,100.91,40.31,141.22c-0.01,0.11-0.01,0.23,0,0.34c0.11,0.76,10.62,75.77,8.4,86.37c-0.03,0.14-0.04,0.29-0.01,0.44
				c0.1,0.71,10.16,71.56,3.13,88.41c-1.39,3.34-2.51,6.56-3.58,9.67c-4.61,13.33-8.59,24.83-31.68,39.66
				c-0.26,0.22-26.64,21.87-56.13,18.2c-0.09-0.01-0.18-0.01-0.28,0c-0.29,0.03-29.46,2.5-46.08-6.27
				c-0.12-0.06-0.25-0.11-0.38-0.13c-7.04-1.21-25.26-6.06-26.51-13.99c87.83-146.9,90.02-192.3,89.86-198.13l25.18-24.79
				c14.88-15.94,15.79-28.45,15.84-30.13c2.69-10.49-4.31-19.56-5.28-20.75c-0.61-1.15-4.61-7.75-17.73-11.84
				c-11.59-3.61-22.65-2.01-26.34-1.3c-0.66-2.83-2.64-10.21-7.44-20.9c-5.57-12.39-17.27-22.32-19.91-24.45l0.8-8.91
				c0.13-1.44-0.29-2.86-1.17-4.01l-13.35-17.35c-0.8-1.04-0.9-2.45-0.24-3.58c6.16-10.66,26.16-46.61,24.83-61.56
				c-1.07-12.02-1.24-12.97-4.72-14.42c-1.02-0.42-2.41-1.01-4.4-2.57c-6.61-5.19-22.3-5.76-26.96-5.81v-1.27
				c0.97-1.14,3.37-4.38,2.42-7.47c-0.65-2.11-2.65-3.56-5.96-4.31c-4.29-0.98-10.28-1.14-15.8-1c9.83-2.72,21.59-6.63,24.35-10.34
				C442.06,261.37,442.65,259.83,442.97,258.27z M554.99,176.31l-1.06,1.67c-10.5,16.52-22.41,35.25-47.98,47.69
				c-0.1,0.05-0.19,0.11-0.28,0.18c-0.14,0.12-14.57,12.38-34.56,15.56c-12.39,1.97-75.02,11.47-90.81,5.11
				c-0.08-0.03-0.16-0.06-0.25-0.07c-0.23-0.04-23.24-4.3-32.08-9.89c-7.05-4.46-19.43-13.28-24.57-16.98
				c-0.11-0.26-0.29-0.49-0.55-0.64c-22.57-12.22-18.64-47.4-18.55-48.16c11.11-32.17,7.1-61.54,6.78-63.69
				c0.09-3.48-0.06-6.8-0.41-9.99c0.52,0.06,1.05-0.2,1.29-0.69c0.32-0.65,32.75-65.26,72.49-75.19
				c12.45-3.11,18.98-5.56,23.75-7.35c10.76-4.04,12.41-4.66,55.15-2.05c38.41,2.35,59.77,25.87,72.77,46.29
				c0.01,0.02,0.01,0.04,0.02,0.05c0.01,0.01,0.01,0.01,0.02,0.02c4,6.3,7.22,12.3,9.89,17.28c2.39,4.47,4.28,7.99,5.93,10.2
				c1.6,2.12,3.01,5,4.24,8.41c0.02,0.1,0.03,0.21,0.08,0.31c0.01,0.02,0.03,0.04,0.04,0.06
				C564.26,116.73,564.38,161.56,554.99,176.31z"/>
			<path style="fill:#ff9f0d;" d="M416.16,840.59l-37.24-2.21c-3.27-0.2-6.31-1.78-8.34-4.33c-2.04-2.56-2.87-5.88-2.29-9.1
				l8.68-47.92c-8.67,8.63-20.6,19.75-29.51,25.11c-11.25,6.77-22.3,10.2-32.83,10.2c-11.08,0-18.21-3.78-20.74-5.39
				c-13.09-4.16-29.97-16.5-40.85-25.22l4.15,40.32c0.68,3.3-0.38,6.98-2.87,9.91c-2.94,3.46-7.22,5.34-12.23,5.14l-27.23,3.5
				c-1.3,0-2.53-0.49-3.46-1.38c-0.2-0.19-0.39-0.4-0.56-0.62l-0.51,0.07l0.23-0.47c-0.54-0.89-0.79-1.94-0.7-3.01
				c0.1-1.18,1.46-11.33,19.63-17.24l-2.38-50.14c-2.91-1.3-7.27-4.38-14.82-11.52c-7.89,7.48-29.31,24.41-61.59,24.42
				c-0.01,0-0.02,0-0.03,0c-14.66,0-29.92-3.48-45.37-10.34c-60.41-26.84-78.26-52.29-82.18-59.12
				C-2.43,694.44,0.03,612.89,6.67,546.99c4.98-49.42,61.11-173.46,70.7-194.36c-2.82-5.84-3.36-11.52-1.6-16.92
				c2.78-8.5,10.36-13.44,13.88-15.32c13.49-23.31,36.37-46.38,49-58.22c-17.55-1.54-30.53-5.04-38.66-10.44
				c-4.3-2.86-7.78-4.87-10.86-6.65c-14.84-8.58-19.38-12.45-35.18-51.9c-19.81-49.45-0.82-97.54-0.01-99.57
				c0.28-0.83,3.16-8.91,8.68-19.47c-28.07-13.69-17.04-55.07-16.92-55.5c0.73-2.65,3.49-4.23,6.15-3.5
				c1.3,0.35,2.38,1.19,3.04,2.35c0.66,1.16,0.83,2.51,0.48,3.8c-0.09,0.34-8.9,34.13,12.15,44.1c1.63-2.72,3.32-5.34,5.04-7.86
				c-11.61-11.35-4.7-30.42-4.62-30.63c0.95-2.56,3.82-3.9,6.4-2.97c1.27,0.46,2.28,1.38,2.84,2.59c0.57,1.21,0.63,2.57,0.17,3.83
				c-0.05,0.12-4.14,11.89,1.31,18.95c9.59-11.89,20.08-20.38,31.23-25.24c2.21-1.11,58.6-28.89,99.5-20.32
				c39.57,8.28,59.77,17.95,74.5,35.67c11.54,13.88,22.55,27.11,27.78,44.26c11.26-19.61,38.13-60.29,71.23-68.56
				c12.12-3.03,18.44-5.41,23.06-7.14c11.86-4.45,13.68-5.14,57.76-2.44c30.9,1.89,55.36,16.47,74.66,44.55
				c5.39-4.6,8.39-9.04,8.54-12.69c0.12-2.9-1.63-4.58-1.7-4.64c-0.95-0.81-1.57-2.03-1.67-3.37c-0.1-1.34,0.33-2.64,1.22-3.65
				c1.81-2.07,4.97-2.3,7.05-0.5c0.54,0.46,5.44,4.84,5.11,12.59c-0.29,6.91-4.7,13.89-13.12,20.77c2.23,3.71,4.19,7.25,5.92,10.44
				c23.17-19.52,26.84-30.39,26.9-35.24c0.03-2.21-0.76-3.13-0.79-3.17l0.01-0.01c-0.97-0.96-1.47-2.05-1.56-3.23
				c-0.1-1.34,0.33-2.64,1.21-3.65c1.77-2.05,4.93-2.31,7.02-0.55c0.73,0.63,4.22,3.96,4.13,10.74
				c-0.15,11.75-10.94,26.57-32.07,44.09c0.87,1.55,1.71,2.93,2.41,3.86c1.04,1.38,2.03,3.04,2.95,4.95
				c16.45-8.97,17.76-14.24,17.85-14.84c0.01-0.17,0.03-0.19,0.09-0.15c-1.7-1.91-1.66-4.89,0.15-6.77
				c1.91-1.97,4.98-2.07,6.99-0.23c1.6,1.46,3.27,4.55,2.71,8.5c-1.02,7.3-8.98,14.83-24.3,22.97c6.94,24.54,6.83,67.65-3.16,83.35
				l-1.06,1.66c-10.88,17.12-23.2,36.49-49.99,49.7c-2.85,2.32-17.31,13.41-37.16,16.57c-3.91,0.62-13.66,2.13-25.55,3.61
				c0.13,0.68,0.24,1.4,0.31,2.14c9.21,7.43,51.23,44.26,78.84,118.16c1.78,3.89,45.7,100.95,40.77,143.61
				c1.88,13.45,10.12,73.77,8.4,86.9c1.36,9.67,9.95,73.34,2.61,90.94c-1.33,3.18-2.4,6.3-3.45,9.31
				c-4.56,13.18-9.27,26.82-33.9,42.68c-2.44,1.98-25.2,19.85-52.88,19.85c-2.43,0-4.86-0.14-7.23-0.41
				c-4.56,0.36-31.08,2.03-48.34-6.66c-4.27-0.8-18.29-3.88-25.92-10.69l-2.12,3.42l-4.04,4.87c1.62,3.42,2.26,7.23,1.83,11
				l-7.42,48.38c10.53,2.52,27.96,8.6,27.16,21.21C421,838.53,418.8,840.59,416.16,840.59z M385.88,757.14
				c2.48,3.52,3.46,7.91,2.69,12.15l-10.4,57.43c-0.07,0.39,0.03,0.79,0.28,1.11c0.26,0.33,0.66,0.53,1.08,0.56l26.99,1.61
				c-4.7-2.79-12.21-5.3-19.03-6.47c-2.68-0.47-4.52-3.02-4.1-5.69l8.1-52.8c0.28-2.57-0.43-5.14-2-7.24l-57.92-75.02
				c-0.04,0-0.08,0.01-0.12,0.01l-51.31,2.89l-21.72,41.25l88.34-3.55l-16.13-20.6c-0.83-1.06-1.19-2.37-1.02-3.7
				c0.17-1.33,0.85-2.52,1.91-3.33c2.19-1.67,5.33-1.27,7.02,0.88l46.86,59.85c0.16,0.2,0.31,0.41,0.46,0.62l0.02-0.03
				L385.88,757.14z M259.89,702.59l-21.32,35.56c-1.71,2.85-2.53,6.1-2.37,9.41l3.5,73.82c0.11,2.36-1.47,4.5-3.77,5.09
				c-2.62,0.67-4.82,1.43-6.66,2.2l12.36-1.61l0.64,0.03c2.54,0.15,3.85-0.95,4.4-1.61c0.62-0.74,0.71-1.43,0.67-1.61l-0.07-0.45
				l-7.58-73.47c-0.38-5.2,0.68-10.28,3.05-14.78L259.89,702.59z M267.52,780.2c9.33,6.92,21.16,14.76,29.98,17.38
				c0.58,0.19,1.06,0.43,1.5,0.74c0.64,0.43,16.83,11.15,43.28-4.76l0,0c4.21-2.53,9.95-7.1,16.83-13.37H267.52z M83.28,363.86
				C69.27,394.9,21.06,504.19,16.65,547.99c-8.87,88.03-4.14,146.08,12.67,155.27c0.94,0.52,1.67,1.29,2.12,2.24
				c0.12,0.23,14.34,27.43,77.96,55.7l0,0c52.08,23.15,85.32-1.93,95.78-11.94c-7.63-7.75-17.05-17.98-28.06-30.48
				c-13.8-15.66-27.26-31.68-36.37-42.66c-1.46-0.63-2.56-1.93-2.91-3.52c-2.55-3.09-4.33-5.26-5.1-6.2
				c-24.5-17.96-41.94-73.3-45.12-83.98l-27.57-21.42c-17.24-14.92-16.47-26.02-15.66-37.78c0.98-14.32,21.75-21.16,24.12-21.89
				l0.41-0.1l8.44-1.6c-0.85-8.94-0.9-27.7,9.99-45.23c1.95-3.13,4.04-6.22,6.25-9.21c-4.3-12.19,3.25-24.35,8.22-30.59
				c0.84-1.06,1.05-2.41,0.58-3.72C98.94,401.27,90.83,379.43,83.28,363.86z M254.8,770.2H369.6c3.21-3.19,5.92-5.97,7.68-7.81
				l-14.1-18c-0.03,0-0.05,0-0.08,0.01l-113.2,6.95l1.67,16.15C252.37,768.16,253.46,769.09,254.8,770.2z M207.44,737.17
				c9.68,10.14,15.59,15.51,19.1,18.34l-0.35-7.48c-0.18-3.73,0.42-7.41,1.75-10.86H207.44z M480.04,754.33l0.67,0.05
				c27.78,3.44,53.06-17.16,53.31-17.36l0.37-0.28c22-14.13,25.6-24.55,30.17-37.74c1.14-3.28,2.25-6.5,3.67-9.89
				c5.48-13.13-0.59-66.85-3.38-86.44c-0.09-0.57-0.07-1.17,0.06-1.76c1.63-7.77-4.99-60.66-8.45-85.06l-0.07-0.47l0.05-0.81
				c4.25-32.73-27.43-111.62-40-139.26c-12.75-34.11-28.58-60.03-42.58-78.55c1.03,2.56,1.37,6.42,1.95,12.89
				c1.38,15.51-16.98,49.32-25.15,63.47l13.15,17.08c1.46,1.89,2.14,4.24,1.93,6.62l-0.62,6.96c4.59,3.93,14.31,13.14,19.42,24.54
				c3.61,8.03,5.68,14.31,6.79,18.21c5.59-0.71,14.92-1.09,24.7,1.95c13.4,4.18,18.33,10.88,19.73,13.32
				c1.9,2.42,8.6,11.98,5.88,23.38c-0.2,3.34-1.97,16.22-16.82,32.13l-24.19,23.82c-0.41,11.58-7.96,60.37-89.5,197
				c2.27,3.83,13.39,8.21,23.06,9.88c0.53,0.08,1.06,0.27,1.56,0.54c15.38,8.12,43.64,5.85,43.92,5.82L480.04,754.33z
				 M388.25,739.82l5.4,6.99l2.03-2.44c0.92-1.53,1.84-3.05,2.74-4.55H388.25z M253.03,737.14l-1.41,2.68
				c-0.25,0.47-0.47,0.94-0.67,1.43l104.75-6.43l-1.36-1.73L253.03,737.14z M198.1,727.17h33.79c0.5,0,0.99,0.07,1.45,0.21
				l24.91-41.53l-94.6,1.98c7.25,8.55,14.14,16.54,20.54,23.82C189.35,717.51,193.96,722.65,198.1,727.17z M374.12,721.51h35.18
				c9.16-15.6,17.67-30.63,25.38-44.82l-90.96,4.25c-0.35,0-0.68-0.04-1.01-0.1L374.12,721.51z M271.44,678.35
				c0.22,0.39,0.4,0.81,0.51,1.26c0.01,0.02,0.01,0.04,0.01,0.05l1.1-1.88c0.12-0.16,0.28-0.35,0.5-0.56l0.64-0.51
				c0.45-0.28,0.7-0.41,0.97-0.51l0.85-0.24c-0.18,0.04,0.16-0.08,0.65-0.11l49.55-2.78c0.24-1.2,0.9-2.26,1.89-3
				c0.19-0.14,0.38-0.27,0.57-0.38v-1.15l-174.96,7.51c0.53,0.64,1.08,1.29,1.63,1.95l109.47-2.29c0.51,0.02,0.98,0.07,1.44,0.19
				c1.12-0.18,2.31,0.01,3.37,0.63c0.68,0.4,1.25,0.94,1.66,1.59l0.27,0L271.44,678.35z M331.14,669.05c1.51,0,3,0.67,3.99,1.95
				l3.6,4.66c0.06-1.16,0.52-2.25,1.31-3.11c0.9-0.98,2.13-1.55,3.47-1.62l96.7-4.52c0.49-0.92,0.97-1.83,1.45-2.73l-111.71,4.8
				l0.48,0.62C330.65,669.07,330.9,669.05,331.14,669.05z M131.54,651.6c2.56,2.94,5.1,5.3,7.57,7.04l0.99,0.92
				c0.14,0.18,2.19,2.69,5.6,6.82l301.29-12.93c2.46-4.78,4.84-9.48,7.11-14.06L131.54,651.6z M122.4,638.86
				c0.63,1.04,1.26,2.04,1.89,3.01l334.78-12.67c0.27-0.56,0.54-1.12,0.8-1.68L122.4,638.86z M100.21,588.81
				c3.38,9.97,9.23,25.8,16.68,40.22l10.6-0.36c-3.03-5.58-5.69-14.17-8.27-26.44C118.74,599.97,111.58,594.58,100.21,588.81z
				 M140.74,591.88c1.85,2.33,2.88,5.23,2.9,8.27c0.08,18.83,0.74,25.63,1.1,27.95l319.89-10.75
				c14.74-32.16,21.13-52.45,23.89-64.31l-8.09,7.96c3.15,15.7-5.97,29.94-7.07,31.58l-0.46,0.65c-2.06,2.71-5.66,3.95-9.1,2.99
				c-3.34-0.95-5.71-3.72-6.19-7.01L140.74,591.88z M94.53,575.11c10.02,4.26,32.34,14.8,34.5,25.07
				c1.79,8.51,3.48,14.36,4.93,18.36c-0.19-4.45-0.32-10.38-0.35-18.35c0-1-0.45-1.95-1.21-2.6c-7.34-6.17-32.57-27.02-49.2-36.16
				c-19.14-10.53-21.64-17.58-23.08-26.41c-0.12-0.72-0.24-1.45-0.38-2.2c-1.5-7.72,5.29-15.07,11.26-19.87
				c1.64-1.32,3.52-2.34,5.55-2.99l-5.36,1.01c-6.61,2.22-16.4,7.39-16.77,12.71c-0.76,11-1.25,18.12,12.01,29.6L94.53,575.11z
				 M122.47,576.62c2.21,1.73,4.45,3.52,6.72,5.36l328.73-2.78l0.34-7.31L122.47,576.62z M467.86,581.35
				c0.01,0.02,0.03,0.05,0.05,0.07c2.19-5.14,4.45-13.01,2.17-20.53c-0.53-1.79-0.05-3.7,1.27-5l46.26-45.55
				c13.5-14.46,14.01-25.84,14.01-25.96l0.17-1.21c2.06-7.79-4.03-15.32-4.09-15.39l-0.69-1.09c0,0,0,0,0,0
				c-0.01,0-3.08-5.26-13.98-8.66c-12.08-3.78-24.12-0.95-24.24-0.92l-0.72,0.12l-7.22,0.53l-0.43-0.01
				c-4.84-0.36-18.44,1.41-30.32,3.24l1.65,0.71l-10.1,0.83c-0.19,0.41-0.44,0.8-0.74,1.15c-0.87,1.02-2.09,1.64-3.43,1.74
				L87.13,494.01c0.03,1.39,0.09,2.64,0.17,3.73l31.7-5.99c1.24-0.27,2.6,0,3.72,0.75c1.12,0.75,1.88,1.89,2.14,3.21
				c0.25,1.32-0.02,2.65-0.77,3.76c-0.76,1.11-1.9,1.86-3.22,2.1l-30.84,5.83l29.04-5.1c2.72-0.43,5.32,1.37,5.8,4.05
				c0.24,1.3-0.05,2.63-0.82,3.73c-0.77,1.1-1.92,1.84-3.25,2.07l-30.3,5.32c-0.09,2.06-0.2,5.33-0.24,9.19l403.44-16.75
				c1.71-9.7,2.82-25.46-3.48-40.33c-0.34-0.03-0.73-0.11-1.12-0.24c-4.56-1.46-27.85,1.67-46.8,5.43
				c-2.72,0.55-5.36-1.24-5.89-3.92c-0.27-1.31,0-2.65,0.75-3.77c0.75-1.12,1.89-1.87,3.21-2.13c4.08-0.82,39.43-7.76,50.61-5.45
				c1.58-0.75,3.38-0.62,4.79,0.23c6.36,0.52,16.73,2.53,23.26,9.81c8.34,9.29,4.28,22.31,0.57,28.54
				c-0.37,0.71-11.23,20.92-20.4,29.73c-6.31,6.06-19.88,17.76-27.42,24.2c-1.7,1.45-2.73,3.56-2.83,5.78L467.86,581.35z
				 M92.67,555.37c4.87,2.96,10.53,6.8,16.87,11.43c0.06,0,0.12,0,0.18,0l349-4.92l0.21-4.55c0.23-4.96,2.54-9.67,6.32-12.91
				c1.46-1.25,3.16-2.7,4.98-4.27L91.9,552.48C92.17,553.7,92.43,554.64,92.67,555.37z M80.39,519.26c-1.16,0.25-2.22,0.76-3.1,1.46
				c-5.51,4.43-8.05,8.48-7.72,10.18c0.15,0.76,0.27,1.52,0.4,2.26c0.82,4.99,1.47,8.98,11.17,15.38
				C79.92,538.4,80.14,526.01,80.39,519.26z M90.35,536.67c0.07,2.07,0.16,4.02,0.29,5.85l391.54-12.77
				c3.67-3.24,6.61-5.9,8.77-7.92c-0.02-0.6,0.07-1.21,0.29-1.8L90.35,536.67z M501.39,470.79c3.88,11.83,4.12,23.69,3.22,33.12
				c3.5-5.65,6.07-10.39,6.26-10.74c0.31-0.54,6.15-10.86,0.68-16.95C508.96,473.34,505.03,471.71,501.39,470.79z M120.44,499.06
				l-0.07,0.01C120.39,499.07,120.42,499.07,120.44,499.06z M89.14,475.79c-0.7,2.81-1.18,5.55-1.5,8.14l344.98-28.16
				c0.1-0.2,0.22-0.4,0.36-0.59c0.77-1.1,1.92-1.83,3.24-2.07c5.82-1.01,34.84-6,44.49-5.37l0.5-0.04
				c-0.22-0.73-0.47-1.53-0.76-2.39L89.14,475.79z M441.83,472.27c-0.01,0-0.02,0-0.03,0C441.81,472.27,441.82,472.27,441.83,472.27
				z M113.97,437l-1.97,1.79c-5.95,6.24-11.44,13.33-16.13,20.88c-1.15,1.85-2.19,3.79-3.12,5.81l384.02-29.9
				c-0.45-1.06-0.91-2.11-1.38-3.17c-5.47-12.19-18.45-22.4-18.58-22.5l-0.48-0.4c-0.56-0.46-1.67-1.36-3.23-2.55L113.97,437z
				 M95.59,328.6l-0.15,0.08c-0.22,0.1-8.06,3.73-10.14,10.14l0,0c-1.08,3.31-0.41,7.06,1.98,11.14
				c8.94,15.26,20.15,45.32,24.56,57.53c1.65,4.56,0.84,9.54-2.16,13.31c-2.31,2.9-5.54,7.65-6.79,12.73l2.29-2.08
				c6.18-6.48,11.09-10.29,12.42-11.28c1.35-1.33,1.72-3.33,0.91-5.04c-5.65-11.92-19.19-40.94-22.81-52.9
				c-4.62-15.24-6.26-23.08,6.81-34.63c10.21-9.03,46.36-14.04,59.38-15.58c-11.56,0.35-46.92,2.55-65.69,16.19L95.59,328.6z
				 M155.02,415.89c-12.24,0-21.69,5.73-26.87,9.82l311.68-27.63c-10.96-6.35-20.68-9.44-28.2-9.03
				c-15.17,0.88-26.18,3.28-31.4,4.63c-1.22,0.37-2.21,0.63-2.66,0.75l-0.35,0.15l-0.56,0.01l-195.38,22.46
				c-1.1,0.24-4.89,0.97-9.75,1.1l-1.46,0.02c-5.12,0-9.75-0.76-13.75-2.26C155.89,415.9,155.45,415.89,155.02,415.89z
				 M136.47,326.17c-19.19,3.8-25.34,7.18-27.31,8.92c-8.52,7.53-8.28,9.68-3.86,24.25c3.43,11.34,16.72,39.81,22.28,51.53
				c0.37,0.79,0.67,1.59,0.89,2.42c4.41-2.61,9.88-5.03,16.3-6.36c-2.51-3.92-3.77-8.76-3.75-14.47c0.02-9,2.98-15.88,8.78-20.45
				c1.17-0.92,2.44-1.73,3.8-2.43c-7.5-4.15-11.87-10.37-12.56-18.16c-0.42-4.75,0.35-9,2.31-12.68
				C139.23,335.88,137.16,331.07,136.47,326.17z M168.97,376.3c-4.21,0-9.35,0.71-12.98,3.57c-3.27,2.58-4.94,6.83-4.96,12.62
				c-0.01,5.45,1.53,9.32,4.72,11.84c4.29,3.4,10.92,3.95,15.74,3.78l203.75-23.43c0.43-0.13,1.19-0.35,2.28-0.63
				c10.1-3.04,15.59-6.74,16.07-8.28l0.21-0.65c2.09-6.65,3.47-11.05-1.95-19.59l-0.07-0.11c-0.4-0.27-1.71-0.98-4.81-1.37
				c-9.22,1.12-16.71,0.83-17.54,0.78c-2.61-0.13-4.66-2.18-4.78-4.76c-0.13-2.58,1.71-4.81,4.29-5.18
				c6.93-1.01,12.87-1.32,17.67-0.91c8.54-1.11,15.81-3.2,21.05-6.07c8.69-4.77,8.03-7.41,7.04-11.4c-0.38-1.53-0.81-3.23-0.76-5.07
				c-1.25-1.16-5.82-3.27-11.27-4.45c-2.64-0.59-4.34-3.11-3.88-5.74c0.07-0.39,0.18-0.76,0.32-1.11l-2.52-1.39l3.1,0.38
				c0.68-0.92,1.67-1.59,2.8-1.87c-1.38,0.13-2.31,0.27-2.75,0.43c-6.62,2.67-11.96-0.16-14.1-3.94c-0.35-0.62-0.57-1.31-0.63-2.02
				l-0.51-6.06c-0.68-7.99,4.72-11.51,8.51-11.93l0.41-0.02l36.61-0.01c0.23-0.62,0.58-1.19,1.05-1.69
				c0.36-0.39,0.77-0.98,1.02-1.47c-0.26-0.09-0.59-0.2-1.02-0.29c-7.05-1.62-21.43-0.65-28.06,0.09c-2.24,0.22-4.32-1.01-5.17-3
				l-11.34,0.29l11-3.05c0.32-1.98,1.8-3.63,3.85-4.09c16.39-3.62,32.56-8.97,34.61-11.45c1.36-1.82,1.09-4.59,0.6-6.66
				c-15.19,1.67-27.83,2.52-37.62,2.52c-9.46,0-16.17-0.78-20.48-2.37c-3.7-0.7-24.57-4.8-33.85-10.67
				c-9.14-5.78-27.04-18.74-27.22-18.87c-11.58-7.38-16.52-19.8-18.51-30.75c-20.12,37.71-44.95,59.03-75.79,65.14
				c-13.1,2.6-37.1,5.62-61.91,5.68c-0.1,0.24-0.21,0.47-0.35,0.69c-0.7,1.15-1.8,1.95-3.1,2.27c-6.04,1.5-15.08,5.74-15.24,10.05
				c-0.27,7.18,15.56,9.85,24.96,10.29c2.86,0.13,6.93,0.33,8.38,3.21l20.94,1.54L176,294.4c-1.4,3.23-7.19,4.15-25.73,6.24
				c-0.74,0.08-1.44,0.31-2.08,0.68c-0.29,0.17-0.61,0.36-0.97,0.59c4.79,0.15,11.79,0.09,20.03-0.45c2.7-0.19,5.14,1.9,5.34,4.65
				c0.19,2.75-1.9,5.14-4.65,5.33l-0.03,0c-0.31,0.15-0.63,0.28-0.96,0.36c1.96,0.52,3.49,2.18,3.72,4.29
				c0.15,1.32-0.24,2.63-1.07,3.67c-0.84,1.04-2.04,1.7-3.37,1.85c-1.04,0.12-9.57,1.08-19.88,2.78c0.27,2.69,1.21,5.81,3.97,6.69
				c7.49-5.21,16.72-5.8,17.81-5.85c1.21-0.09,2.53,0.34,3.55,1.23c1.01,0.89,1.63,2.17,1.69,3.52c0.07,1.33-0.39,2.61-1.29,3.6
				c-0.9,0.99-2.14,1.58-3.48,1.64c-0.05,0-10.11,0.66-14.96,6.17c-2.09,2.37-2.94,5.36-2.61,9.15
				c1.24,13.96,23.86,14.65,26.43,14.69c2.88,0.11,4.95,2.15,5.06,4.78l8.5,1.89l-8.52,0.67c-0.02,0.22-0.05,0.44-0.11,0.66
				c-0.62,2.68-3.28,4.38-5.99,3.77C176.34,376.98,173.1,376.3,168.97,376.3z M446.35,390.25c3.55,2.13,6.74,4.28,9.35,6.15
				l0.02-0.27l-13.23-17.19c-2.35-3.06-2.62-7.19-0.7-10.53c15.36-26.57,24.78-49.29,24.02-57.88c-0.33-3.65-0.69-7.72-1.03-9.25
				c-1.23-0.52-3.18-1.37-5.72-3.37c-4.26-3.35-16.82-4.42-24.3-4.46c-0.08,0-0.17,0-0.25-0.01c-0.5,0.17-1.03,0.26-1.58,0.26
				h-38.43c-0.04,0.21-0.08,0.56-0.03,1.12l0.33,3.9c0.29-0.03,0.68-0.12,1.17-0.32c5.72-2.31,52.01-2.33,57.95,0.95l0.72,0.39
				c5.32,2.82,8.29,6.56,6.62,16.45c-1.59,9.4-22.86,56.97-25.28,62.36c-0.04,0.09-0.09,0.19-0.13,0.27
				c0.15,0.18,0.34,0.4,0.61,0.67l0.59,0.71C437.1,380.27,440.59,385.24,446.35,390.25z M413.04,379.02c3.98,0,8.25,0.66,12.79,1.96
				c-0.25-0.91-0.36-1.83-0.31-2.75c0.1-2.04,0.93-3.52,1.62-4.43c8.6-19.25,23.16-52.89,24.23-59.25c0.81-4.77,0.46-4.95-1.45-5.97
				l-0.58-0.31c-1.05-0.26-4.91-0.68-12.06-1.01c0.07,0.55,0.09,1.09,0.07,1.63c-0.09,2.16-0.96,5.26-4.58,7.81
				c-3.03,2.13-6.3,2.75-8.91,2.81c0.13,0.77,0.14,1.49,0.08,2.14c-0.04,0.43,0.26,1.66,0.46,2.47c1.23,4.92,3.51,14.09-11.93,22.58
				c-3.33,1.83-7.18,3.37-11.48,4.61c7.07,11.85,4.57,19.8,2.36,26.84l-0.19,0.63c-0.1,0.33-0.22,0.65-0.36,0.97
				c2.72-0.27,5.47-0.49,8.24-0.65C411.7,379.03,412.37,379.02,413.04,379.02z M435.49,378.28L435.49,378.28L435.49,378.28z
				 M168.58,332.66c-0.01,0-0.04,0-0.09,0C168.52,332.67,168.55,332.67,168.58,332.66z M168.19,327.77c-0.02,0-0.04,0-0.06,0
				C168.15,327.78,168.17,327.77,168.19,327.77z M133.38,281.34c-8.19,8.39-17.55,18.78-25.61,29.75c7.11-2.64,15.26-4.74,24.4-6.29
				c-0.07-1.42,0.38-2.85,1.33-4.07c2.87-3.71,6.83-6.43,9.65-8.07c0.48-0.28,0.96-0.53,1.46-0.75
				C137.81,288.91,134.72,284.88,133.38,281.34z M404.2,307.13c0.02,0,0.04,0,0.05,0.01l17.36,2.17c0.01,0.01,3.16,0.79,5.38-0.78
				c0.33-0.23,0.43-0.37,0.43-0.37c-0.08-0.04-0.43-0.59-0.97-1.25C416.52,306.69,408.8,306.83,404.2,307.13z M441.65,283.67
				c7.44,0.48,17.97,1.96,23.62,6.4c1.6,1.25,2.62,1.68,3.53,2.05c1,0.42,1.83,0.85,2.53,1.35c-11.32-14.51-21.2-24.05-26.9-29.07
				c-0.14,0.21-0.29,0.41-0.44,0.62c-1.07,1.43-3.18,3.39-9.07,5.93c4.62,1.5,6.4,4.25,7.06,6.4
				C442.69,279.61,442.35,281.81,441.65,283.67z M432.34,279.88L432.34,279.88L432.34,279.88z M402.18,272.93c0,0-0.01,0-0.01,0
				C402.17,272.93,402.17,272.93,402.18,272.93z M157.11,263.54L157.11,263.54L157.11,263.54z M157.11,263.54L157.11,263.54
				L157.11,263.54z M151.14,252.96c25.3,0.83,53.39-2.1,70-5.39c28.68-5.68,51.86-26.55,70.85-63.79
				c18.72-36.7,12.92-75.44,12.86-75.83l-0.06-0.91c0.71-26.01-12.82-42.27-28.48-61.1c-13.18-15.85-31.87-24.63-68.95-32.39
				c-4.46-0.94-9.43-1.41-14.77-1.41c-35.95,0-77.98,20.78-78.4,20.99C81.06,47.59,63.52,96.61,63.35,97.11
				c-0.28,0.72-18.52,46.35-0.08,92.37c15.17,37.87,18.5,39.79,30.89,46.95c3.24,1.87,6.88,3.97,11.4,6.99
				c8.28,5.51,23.95,8.81,45.33,9.54L151.14,252.96z M326.17,216.97c5.35,3.84,17.13,12.21,23.8,16.43
				c6.45,4.08,22.94,7.91,30.76,9.37l0.99,0.29c11.53,4.65,55.05,0.03,88.81-5.34c18.77-2.98,32.59-14.59,32.72-14.71l0.98-0.66
				c24.71-12.02,36.31-30.27,46.55-46.37l1.07-1.68c8.24-12.94,8.86-55.68,1.2-78.07l-0.39-1.1c-1.14-3.1-2.36-5.54-3.64-7.24
				c-1.82-2.42-3.76-6.04-6.22-10.63c-2.58-4.82-5.75-10.74-9.66-16.91l-0.34-0.54c-17.89-28-40.7-42.51-69.67-44.28
				c-41.95-2.56-43.5-1.98-53.61,1.82c-4.9,1.84-11.55,4.33-24.16,7.48c-38.04,9.5-69.74,72.59-70.05,73.22
				c-0.19,0.39-0.43,0.74-0.7,1.05c0.2,2.55,0.27,5.15,0.21,7.76c0.63,4.51,3.98,33.02-6.85,64.72
				c-0.34,3.69-2.46,33.73,16.66,44.08C325.23,215.99,325.75,216.43,326.17,216.97z M580,70.32L580,70.32
				C580.01,70.32,580.01,70.32,580,70.32L580,70.32z M583.41,66.8c0.02,0.02,0.04,0.04,0.06,0.06
				C583.45,66.84,583.43,66.82,583.41,66.8z M550.16,27.17c0.03,0.03,0.06,0.05,0.1,0.09C550.23,27.23,550.2,27.2,550.16,27.17z
				 M48.19,19.33c0,0.01,0,0.02-0.01,0.03C48.19,19.35,48.19,19.34,48.19,19.33z"/>
		</g>
		<g>
			<path style="fill:#ffb84d;" d="M453.26,670.51c-0.71,0.04-1.25,0.64-1.21,1.35l2.86,48.69c0.04,0.68,0.61,1.2,1.28,1.2
				c0.03,0,0.05,0,0.08,0c0.71-0.04,1.25-0.64,1.21-1.35l-2.86-48.69C454.58,671.01,454,670.47,453.26,670.51z"/>
			<path style="fill:#ff9f0d;" d="M456.46,725.46c-2.93,0-5.11-2.06-5.27-4.7l-2.86-48.69c-0.08-1.35,0.37-2.64,1.27-3.64
				c0.89-0.99,2.11-1.58,3.45-1.65c2.83-0.21,5.12,1.94,5.29,4.68l2.86,48.7c0.08,1.34-0.37,2.63-1.27,3.63
				c-0.89,0.99-2.12,1.58-3.45,1.66C456.47,725.46,456.47,725.46,456.46,725.46z"/>
		</g>
		<g>
			<path style="fill:#ffb84d;" d="M484.58,601.46c-0.7,0.12-1.17,0.77-1.06,1.47l18.43,109.83c0.11,0.62,0.65,1.06,1.27,1.06
				c0.07,0,0.14,0,0.21-0.02c0.7-0.12,1.17-0.77,1.06-1.47l-18.43-109.83C485.94,601.81,485.28,601.34,484.58,601.46z"/>
			<path style="fill:#ff9f0d;" d="M503.21,717.55c-2.46,0-4.53-1.75-4.94-4.17l-18.43-109.84c-0.45-2.73,1.4-5.31,4.12-5.76h0
				c2.72-0.47,5.3,1.39,5.77,4.1l18.43,109.84c0.45,2.73-1.4,5.31-4.12,5.76L503.21,717.55z"/>
		</g>
		<g>
			<path style="fill:#ffb84d;" d="M513.18,537.79c-0.7,0.11-1.18,0.76-1.07,1.46l23.86,147.08c0.1,0.63,0.65,1.07,1.27,1.07
				c0.07,0,0.14-0.01,0.21-0.02c0.7-0.11,1.18-0.76,1.07-1.46l-23.86-147.08C514.54,538.15,513.87,537.68,513.18,537.79z"/>
			<path style="fill:#ff9f0d;" d="M537.24,691.13c-2.48,0-4.56-1.77-4.95-4.2l-23.86-147.07c-0.21-1.32,0.1-2.65,0.89-3.73
				c0.78-1.08,1.94-1.79,3.26-2c1.3-0.21,2.64,0.1,3.72,0.86c1.1,0.78,1.82,1.94,2.04,3.27l23.85,147.08
				c0.22,1.31-0.1,2.64-0.88,3.72c-0.79,1.09-1.96,1.81-3.29,2.01L537.24,691.13z M534.83,686.52c0,0,0,0.01,0,0.01L534.83,686.52z"
				/>
		</g>
		<g>
			<path style="fill:#ffb84d;" d="M471.4,357.89l30.63,71.71c0.21,0.49,0.68,0.78,1.18,0.78c0.17,0,0.34-0.03,0.5-0.1
				c0.66-0.27,0.96-1.02,0.68-1.67l-30.63-71.71c-0.28-0.65-1.03-0.95-1.69-0.68C471.43,356.49,471.13,357.24,471.4,357.89z"/>
			<path style="fill:#ff9f0d;" d="M503.21,434.11c-2.01,0-3.82-1.19-4.61-3.04l-30.63-71.72c-0.53-1.23-0.54-2.59-0.04-3.83
				c0.51-1.25,1.47-2.22,2.71-2.74c2.52-1.07,5.47,0.12,6.55,2.65l30.63,71.71c0.53,1.23,0.54,2.6,0.04,3.84
				c-0.51,1.24-1.47,2.22-2.71,2.73C504.54,433.97,503.89,434.11,503.21,434.11z"/>
		</g>
		<g>
			<path style="fill:#ffb84d;" d="M106.26,647.87c-0.76-0.09-1.31,0.52-1.34,1.22l-3.64,87.94c-0.03,0.7,0.52,1.3,1.23,1.32
				c0.02,0,0.04,0,0.05,0c0.69,0,1.26-0.54,1.29-1.22l3.64-87.94C107.52,648.49,106.97,647.9,106.26,647.87z"/>
			<path style="fill:#ff9f0d;" d="M102.57,742.08l-0.54-0.03c-1.21-0.13-2.32-0.68-3.15-1.58c-0.91-0.99-1.38-2.26-1.32-3.6
				l3.64-87.94c0.05-1.4,0.69-2.73,1.74-3.63c1-0.86,2.27-1.28,3.6-1.15c1.28,0.08,2.47,0.64,3.35,1.59
				c0.91,0.98,1.38,2.26,1.33,3.59l-3.64,87.95C107.47,739.98,105.27,742.08,102.57,742.08z M108.65,649.23v0.01
				C108.65,649.24,108.65,649.24,108.65,649.23z"/>
		</g>
		<g>
			<path style="fill:#ffb84d;" d="M74.04,578.44c-0.7-0.13-1.37,0.33-1.5,1.02L51.95,690.43c-0.13,0.69,0.33,1.36,1.03,1.48
				c0.08,0.01,0.16,0.02,0.23,0.02c0.61,0,1.15-0.43,1.26-1.04l20.59-110.96C75.2,579.23,74.73,578.57,74.04,578.44z"/>
			<path style="fill:#ff9f0d;" d="M53.22,695.66l-0.92-0.08c-1.31-0.24-2.46-0.98-3.22-2.09c-0.76-1.1-1.04-2.43-0.8-3.75
				l20.59-110.96c0.24-1.31,0.98-2.45,2.09-3.21c1.11-0.76,2.44-1.04,3.76-0.8c1.31,0.24,2.46,0.98,3.21,2.08
				c0.76,1.1,1.04,2.43,0.8,3.75L58.15,691.57C57.7,693.94,55.63,695.66,53.22,695.66z"/>
		</g>
		<g>
			<path style="fill:#ffb84d;" d="M40.08,554.28c-0.7-0.11-1.36,0.35-1.48,1.05l-14.49,86.29c-0.12,0.69,0.36,1.35,1.06,1.47
				c0.07,0.01,0.14,0.02,0.21,0.02c0.62,0,1.16-0.44,1.27-1.06l14.49-86.29C41.26,555.06,40.78,554.4,40.08,554.28z"/>
			<path style="fill:#ff9f0d;" d="M25.39,646.83l-0.96-0.09c-1.17-0.19-2.33-0.9-3.12-1.99c-0.78-1.09-1.09-2.42-0.87-3.74
				l14.49-86.29c0.46-2.7,3.03-4.55,5.75-4.11l0.02,0c1.32,0.22,2.48,0.94,3.26,2.03c0.78,1.09,1.08,2.41,0.86,3.73l-14.49,86.29
				C29.92,645.07,27.84,646.83,25.39,646.83z"/>
		</g>
		<g>
			<path style="fill:#ffb84d;" d="M66.48,466.9c0.15,0.06,0.31,0.08,0.46,0.08c0.52,0,1.01-0.31,1.2-0.82l19.06-49.44
				c0.25-0.66-0.08-1.39-0.74-1.65c-0.67-0.25-1.41,0.08-1.66,0.74l-19.06,49.44C65.48,465.92,65.82,466.65,66.48,466.9z"/>
			<path style="fill:#ff9f0d;" d="M66.94,470.71c-0.62,0-1.22-0.11-1.79-0.33c-1.25-0.48-2.24-1.41-2.79-2.64
				c-0.55-1.22-0.58-2.58-0.1-3.83l19.06-49.45c0.98-2.55,3.87-3.83,6.44-2.89c1.28,0.48,2.28,1.42,2.82,2.65
				c0.55,1.22,0.58,2.58,0.1,3.83l-19.06,49.44C70.88,469.43,69,470.71,66.94,470.71z"/>
		</g>
	</g>
	<g>
		<g>
			<path style="fill:#ffb84d;" d="M245.29,94.28c-16.9,0-30.64,13.61-30.64,30.34c0,16.73,13.75,30.33,30.64,30.33
				s30.64-13.61,30.64-30.33C275.94,107.89,262.19,94.28,245.29,94.28z M245.29,152.41c-15.48,0-28.07-12.47-28.07-27.79
				c0-15.32,12.59-27.79,28.07-27.79s28.07,12.47,28.07,27.79C273.36,139.94,260.77,152.41,245.29,152.41z"/>
			<path style="fill:#ff9f0d;" d="M245.29,171.73c-26.15,0-47.42-21.13-47.42-47.11s21.27-47.11,47.42-47.11
				s47.42,21.13,47.42,47.11S271.44,171.73,245.29,171.73z M245.29,113.6c-6.23,0-11.3,4.94-11.3,11.01s5.07,11.01,11.3,11.01
				c6.23,0,11.3-4.94,11.3-11.01S251.52,113.6,245.29,113.6z"/>
		</g>
	</g>
</g>
<g>
</g>
<g>
</g>
<g>
</g>
<g>
</g>
<g>
</g>
<g>
</g>
</svg>
