<svg version="1.1" id="Layer_1" xmlns="http://www.w3.org/2000/svg" xmlns:xlink="http://www.w3.org/1999/xlink" x="0px" y="0px"
	 width="100%" viewBox="0 0 677 906" enable-background="new 0 0 677 906" xml:space="preserve">
<path fill="#FDFFFE" opacity="1.000000" stroke="none" 
	d="
M1.000000,268.000000 
	C1.000000,178.666672 1.000000,89.833336 1.000000,1.000000 
	C226.666672,1.000000 452.333344,1.000000 678.000000,1.000000 
	C678.000000,303.000000 678.000000,605.000000 678.000000,907.000000 
	C452.333344,907.000000 226.666672,907.000000 1.000000,907.000000 
	C1.000000,694.166687 1.000000,481.333344 1.000000,268.000000 
M94.316048,458.800476 
	C82.382599,490.206757 69.857201,521.403931 58.671360,553.074280 
	C45.809959,589.488586 38.191399,627.034424 39.143715,665.921143 
	C39.318150,673.044006 39.991764,680.200867 41.068157,687.245300 
	C42.918663,699.355713 44.136803,711.728149 47.624817,723.391174 
	C57.080128,755.007141 75.442963,780.735535 102.528198,799.787476 
	C125.121216,815.679565 149.951080,825.256836 178.102493,823.909668 
	C195.975266,823.054260 213.210464,818.653809 230.305649,813.740112 
	C240.788269,810.727051 251.174423,807.378479 261.846558,804.106140 
	C262.327820,805.762329 262.794281,806.830444 262.936890,807.940125 
	C264.628784,821.105591 266.404358,834.262817 267.845612,847.456360 
	C268.260010,851.249756 268.958466,855.859070 267.302521,858.871704 
	C262.506866,867.596680 256.577850,875.698303 251.099716,884.048523 
	C249.499100,886.488281 247.918671,888.941284 245.766922,892.253357 
	C261.415649,888.879517 275.989990,885.797791 290.507996,882.470154 
	C291.471924,882.249207 292.782410,880.039978 292.617920,878.954590 
	C291.401489,870.928162 289.800781,862.960938 288.420227,854.957947 
	C286.918335,846.251709 285.523468,837.526978 283.955658,828.046570 
	C286.370728,829.319397 287.961517,830.193359 289.582733,831.006836 
	C307.271851,839.883118 324.593536,849.503601 343.679840,855.371338 
	C353.673767,858.443848 363.163605,858.945068 372.598297,853.924500 
	C377.298645,851.423340 382.166718,849.228088 386.801514,846.615234 
	C393.771118,842.686096 400.602509,838.511841 408.277069,833.978516 
	C405.889709,850.777405 403.661743,866.454773 401.365448,882.612854 
	C418.764313,882.612854 435.459198,882.612854 453.129333,882.612854 
	C450.655762,880.310059 448.783325,878.512939 446.853180,876.780090 
	C441.031342,871.553467 435.020416,866.520325 429.464569,861.026123 
	C428.012665,859.590454 427.015289,856.572266 427.395782,854.584534 
	C430.389343,838.945435 433.854950,823.397400 436.962433,807.778931 
	C437.667206,804.236755 439.338287,803.584167 442.530182,804.235352 
	C456.509247,807.087280 470.447937,810.223999 484.525757,812.480713 
	C498.684235,814.750366 513.151306,815.867432 527.163940,812.222107 
	C548.664307,806.628906 567.474854,795.671631 583.212830,779.980896 
	C597.109558,766.125916 605.666748,749.502197 606.009644,729.446533 
	C606.234070,716.318970 606.546143,703.159058 605.909973,690.057739 
	C604.620789,663.508728 603.746704,636.873352 600.773193,610.490967 
	C597.769409,583.839783 593.283875,557.278870 587.951904,530.981689 
	C574.062439,462.480011 545.241882,400.341644 505.618866,343.018219 
	C498.832489,333.200256 492.129639,323.324554 485.208527,313.213043 
	C496.868713,308.681641 508.209351,304.389526 519.461731,299.877350 
	C542.193970,290.761749 562.779724,278.557251 577.720276,258.474426 
	C587.706604,245.050934 595.991333,230.422104 596.614319,213.555130 
	C597.235962,196.725082 595.161316,179.800552 594.461365,162.909485 
	C594.383240,161.024902 595.037048,158.618973 596.252380,157.261337 
	C600.358704,152.674194 604.702576,148.262619 609.286926,144.153641 
	C612.348999,141.409088 612.960938,138.959976 611.119812,135.163956 
	C608.035706,128.805206 605.238464,122.442253 608.053040,114.840599 
	C610.577087,108.023712 611.982178,100.787804 613.792480,93.714111 
	C614.373474,91.443756 614.672729,89.101311 615.100952,86.791862 
	C614.790894,86.665016 614.480896,86.538170 614.170837,86.411324 
	C601.687988,101.073990 589.205139,115.736656 576.722290,130.399323 
	C576.477844,130.236694 576.233337,130.074066 575.988892,129.911438 
	C579.684937,115.195503 583.381042,100.479576 587.077087,85.763641 
	C586.785522,85.603508 586.493896,85.443375 586.202332,85.283241 
	C579.938049,92.716560 573.673706,100.149879 567.435669,107.552086 
	C559.897095,101.506180 552.659058,95.389938 545.101196,89.698509 
	C522.860596,72.950386 497.968262,62.986473 469.958435,62.368999 
	C452.158630,61.976604 435.055847,66.614647 418.366089,72.387360 
	C393.004547,81.159470 374.206085,98.497299 358.489105,119.569633 
	C353.339600,126.473740 348.627380,133.704025 343.423187,141.206085 
	C339.483826,133.938232 335.793579,127.057808 332.036621,120.214005 
	C324.766846,106.971260 316.450470,94.316444 304.148804,85.352310 
	C273.893616,63.305576 239.770401,58.114033 203.578827,64.516418 
	C176.501907,69.306396 152.030197,80.932648 128.665207,94.999031 
	C125.984123,96.613106 124.045761,96.535828 121.377541,95.371956 
	C115.558311,92.833588 109.577011,90.666771 103.278809,88.197960 
	C104.521400,100.315887 105.687332,111.686150 106.853256,123.056412 
	C102.771576,117.551430 99.615242,111.710541 95.969002,106.193436 
	C93.097809,101.849037 92.740181,97.479134 93.409950,92.460106 
	C94.299408,85.794655 94.371193,79.020088 94.805115,72.120537 
	C94.334953,72.459373 93.976341,72.581726 93.858597,72.822083 
	C85.227470,90.439667 76.528366,108.025543 68.161133,125.767899 
	C67.464249,127.245605 68.446899,130.222107 69.622902,131.755554 
	C75.087410,138.880981 81.063354,145.616180 86.472511,152.780762 
	C88.002739,154.807617 89.001076,157.831604 88.942627,160.368286 
	C88.468330,180.953491 87.092865,201.533554 87.162018,222.111252 
	C87.230583,242.515701 92.560081,261.859833 102.475197,279.835876 
	C109.049156,291.754456 117.080566,302.288849 130.269180,307.353607 
	C138.625687,310.562744 147.247345,313.091797 155.787125,315.809479 
	C160.896133,317.435333 166.076630,318.836548 172.001953,320.565460 
	C165.901932,327.746979 160.487305,334.032318 155.169678,340.398682 
	C138.865219,359.918701 124.494202,380.725708 114.915352,404.409729 
	C107.744179,422.140717 101.376793,440.196747 94.316048,458.800476 
z"/>
<path fill="#89ABC3" opacity="1.000000" stroke="none" 
	d="
M94.483780,458.454285 
	C101.376793,440.196747 107.744179,422.140717 114.915352,404.409729 
	C124.494202,380.725708 138.865219,359.918701 155.169678,340.398682 
	C160.487305,334.032318 165.901932,327.746979 172.001953,320.565460 
	C166.076630,318.836548 160.896133,317.435333 155.787125,315.809479 
	C147.247345,313.091797 138.625687,310.562744 130.269180,307.353607 
	C117.080566,302.288849 109.049156,291.754456 102.475197,279.835876 
	C92.560081,261.859833 87.230583,242.515701 87.162018,222.111252 
	C87.092865,201.533554 88.468330,180.953491 88.942627,160.368286 
	C89.001076,157.831604 88.002739,154.807617 86.472511,152.780762 
	C81.063354,145.616180 75.087410,138.880981 69.622902,131.755554 
	C68.446899,130.222107 67.464249,127.245605 68.161133,125.767899 
	C76.528366,108.025543 85.227470,90.439667 93.858597,72.822083 
	C93.976341,72.581726 94.334953,72.459373 94.805115,72.120537 
	C94.371193,79.020088 94.299408,85.794655 93.409950,92.460106 
	C92.740181,97.479134 93.097809,101.849037 95.969002,106.193436 
	C99.615242,111.710541 102.771576,117.551430 106.853256,123.056412 
	C105.687332,111.686150 104.521400,100.315887 103.278809,88.197960 
	C109.577011,90.666771 115.558311,92.833588 121.377541,95.371956 
	C124.045761,96.535828 125.984123,96.613106 128.665207,94.999031 
	C152.030197,80.932648 176.501907,69.306396 203.578827,64.516418 
	C239.770401,58.114033 273.893616,63.305576 304.148804,85.352310 
	C316.450470,94.316444 324.766846,106.971260 332.036621,120.214005 
	C335.793579,127.057808 339.483826,133.938232 343.423187,141.206085 
	C348.627380,133.704025 353.339600,126.473740 358.489105,119.569633 
	C374.206085,98.497299 393.004547,81.159470 418.366089,72.387360 
	C435.055847,66.614647 452.158630,61.976604 469.958435,62.368999 
	C497.968262,62.986473 522.860596,72.950386 545.101196,89.698509 
	C552.659058,95.389938 559.897095,101.506180 567.435669,107.552086 
	C573.673706,100.149879 579.938049,92.716560 586.202332,85.283241 
	C586.493896,85.443375 586.785522,85.603508 587.077087,85.763641 
	C583.381042,100.479576 579.684937,115.195503 575.988892,129.911438 
	C576.233337,130.074066 576.477844,130.236694 576.722290,130.399323 
	C589.205139,115.736656 601.687988,101.073990 614.170837,86.411324 
	C614.480896,86.538170 614.790894,86.665016 615.100952,86.791862 
	C614.672729,89.101311 614.373474,91.443756 613.792480,93.714111 
	C611.982178,100.787804 610.577087,108.023712 608.053040,114.840599 
	C605.238464,122.442253 608.035706,128.805206 611.119812,135.163956 
	C612.960938,138.959976 612.348999,141.409088 609.286926,144.153641 
	C604.702576,148.262619 600.358704,152.674194 596.252380,157.261337 
	C595.037048,158.618973 594.383240,161.024902 594.461365,162.909485 
	C595.161316,179.800552 597.235962,196.725082 596.614319,213.555130 
	C595.991333,230.422104 587.706604,245.050934 577.720276,258.474426 
	C562.779724,278.557251 542.193970,290.761749 519.461731,299.877350 
	C508.209351,304.389526 496.868713,308.681641 485.208527,313.213043 
	C492.129639,323.324554 498.832489,333.200256 505.618866,343.018219 
	C545.241882,400.341644 574.062439,462.480011 587.951904,530.981689 
	C593.283875,557.278870 597.769409,583.839783 600.773193,610.490967 
	C603.746704,636.873352 604.620789,663.508728 605.909973,690.057739 
	C606.546143,703.159058 606.234070,716.318970 606.009644,729.446533 
	C605.666748,749.502197 597.109558,766.125916 583.212830,779.980896 
	C567.474854,795.671631 548.664307,806.628906 527.163940,812.222107 
	C513.151306,815.867432 498.684235,814.750366 484.525757,812.480713 
	C470.447937,810.223999 456.509247,807.087280 442.530182,804.235352 
	C439.338287,803.584167 437.667206,804.236755 436.962433,807.778931 
	C433.854950,823.397400 430.389343,838.945435 427.395782,854.584534 
	C427.015289,856.572266 428.012665,859.590454 429.464569,861.026123 
	C435.020416,866.520325 441.031342,871.553467 446.853180,876.780090 
	C448.783325,878.512939 450.655762,880.310059 453.129333,882.612854 
	C435.459198,882.612854 418.764313,882.612854 401.365448,882.612854 
	C403.661743,866.454773 405.889709,850.777405 408.277069,833.978516 
	C400.602509,838.511841 393.771118,842.686096 386.801514,846.615234 
	C382.166718,849.228088 377.298645,851.423340 372.598297,853.924500 
	C363.163605,858.945068 353.673767,858.443848 343.679840,855.371338 
	C324.593536,849.503601 307.271851,839.883118 289.582733,831.006836 
	C287.961517,830.193359 286.370728,829.319397 283.955658,828.046570 
	C285.523468,837.526978 286.918335,846.251709 288.420227,854.957947 
	C289.800781,862.960938 291.401489,870.928162 292.617920,878.954590 
	C292.782410,880.039978 291.471924,882.249207 290.507996,882.470154 
	C275.989990,885.797791 261.415649,888.879517 245.766922,892.253357 
	C247.918671,888.941284 249.499100,886.488281 251.099716,884.048523 
	C256.577850,875.698303 262.506866,867.596680 267.302521,858.871704 
	C268.958466,855.859070 268.260010,851.249756 267.845612,847.456360 
	C266.404358,834.262817 264.628784,821.105591 262.936890,807.940125 
	C262.794281,806.830444 262.327820,805.762329 261.846558,804.106140 
	C251.174423,807.378479 240.788269,810.727051 230.305649,813.740112 
	C213.210464,818.653809 195.975266,823.054260 178.102493,823.909668 
	C149.951080,825.256836 125.121216,815.679565 102.528198,799.787476 
	C75.442963,780.735535 57.080128,755.007141 47.624817,723.391174 
	C44.136803,711.728149 42.918663,699.355713 41.068157,687.245300 
	C39.991764,680.200867 39.318150,673.044006 39.143715,665.921143 
	C38.191399,627.034424 45.809959,589.488586 58.671360,553.074280 
	C69.857201,521.403931 82.382599,490.206757 94.483780,458.454285 
M179.384506,477.997437 
	C179.384506,477.997437 179.184006,478.114532 178.394089,478.433136 
	C176.480850,478.926880 174.567627,479.420593 172.449234,480.013458 
	C172.449234,480.013458 172.084457,480.268555 171.340378,480.586090 
	C159.615662,483.578796 150.510574,490.183655 144.767838,500.843750 
	C140.037369,509.624817 135.667313,518.616943 131.515442,527.688477 
	C126.496109,538.655273 126.682098,538.666443 138.782288,541.107605 
	C143.491150,542.057556 148.233856,543.067139 152.762848,544.625793 
	C158.858383,546.723633 160.280945,552.106018 160.853455,557.810547 
	C161.370895,562.966492 156.852264,563.392334 153.837433,564.970337 
	C146.015442,569.064331 138.007584,572.803589 130.193741,576.912415 
	C128.913345,577.585754 127.242508,579.601624 127.442841,580.684143 
	C129.507294,591.839478 132.574585,602.585999 139.231293,612.149719 
	C147.956116,624.684753 160.337753,632.789978 172.758118,640.836426 
	C176.303940,643.133545 177.545776,645.927429 178.009308,649.705566 
	C178.837296,656.454651 179.867264,663.178772 180.735519,669.923218 
	C181.561523,676.339172 182.288788,682.767822 183.059464,689.190918 
	C182.687531,689.317139 182.315582,689.443420 181.943649,689.569641 
	C171.231644,676.773682 160.519653,663.977661 149.807648,651.181702 
	C149.483780,651.345215 149.159912,651.508789 148.836044,651.672302 
	C151.209732,662.753662 153.583420,673.835083 155.957092,684.916443 
	C155.439316,685.155212 154.921539,685.393982 154.403763,685.632751 
	C141.217270,667.199097 128.030777,648.765442 114.411064,629.726135 
	C108.126907,666.433350 101.915405,702.716187 95.703911,738.999023 
	C95.451698,731.129028 95.932869,723.344177 96.961502,715.632324 
	C100.426460,689.654968 103.892448,663.674438 107.807999,637.763000 
	C108.782089,631.316956 108.199150,626.115906 104.328072,620.589172 
	C95.736900,608.323608 87.951889,595.496216 79.654198,583.020264 
	C77.641747,579.994446 77.988365,578.296814 80.851105,576.065002 
	C92.396500,567.064209 103.811913,557.891907 115.095184,548.565063 
	C116.599129,547.321899 117.985588,544.775330 117.876572,542.923645 
	C116.900192,526.339111 115.470047,509.781372 114.489815,493.197021 
	C114.367943,491.135101 115.511887,488.291077 117.059113,486.959839 
	C123.863197,481.105560 130.894394,475.487671 138.134155,470.180969 
	C140.983231,468.092651 140.969711,466.251465 139.717819,463.491974 
	C136.761200,456.974976 133.982361,450.377655 131.086136,443.832916 
	C128.487274,437.960114 125.827690,432.114197 122.934196,425.676392 
	C122.144730,427.010345 121.760277,427.528320 121.508392,428.104309 
	C100.963432,475.088165 82.882286,523.000183 67.126709,571.801453 
	C58.716534,597.851074 52.263348,624.314636 52.188885,651.802002 
	C52.149418,666.370544 53.200306,681.054077 55.186005,695.489319 
	C58.015476,716.058472 64.628883,735.695374 75.210648,753.611816 
	C91.956383,781.964844 117.847168,798.164246 148.894821,807.052734 
	C163.374741,811.198120 178.111694,812.325195 192.737854,808.881287 
	C207.751740,805.345947 222.498993,800.677002 237.352524,796.467346 
	C237.907623,796.310059 238.353561,795.767578 239.769012,794.733459 
	C227.002411,780.057739 214.225449,765.850525 202.003387,751.180969 
	C190.507874,737.383362 179.270981,723.339783 168.594666,708.905579 
	C164.450378,703.302612 162.154755,696.332275 159.001373,689.998901 
	C159.001373,689.998901 158.988419,690.013733 159.679550,690.065979 
	C165.631073,695.113953 172.173645,699.615967 177.429611,705.306335 
	C197.865677,727.431519 217.772171,750.045105 238.145493,772.229248 
	C244.364349,779.000854 251.449081,784.977234 258.509766,791.670959 
	C269.104828,771.762390 279.762543,751.736023 291.085480,730.459778 
	C268.702637,732.783752 247.920242,734.941528 227.137848,737.099365 
	C239.319275,732.704712 251.602692,728.672852 264.195129,726.242249 
	C286.324249,721.970825 308.570343,718.144043 330.902710,715.134827 
	C351.289551,712.387695 371.852875,710.942505 392.343567,708.977051 
	C405.896484,707.677063 419.453217,706.410583 433.018616,705.250244 
	C439.558258,704.690918 446.121857,704.411438 452.674591,704.005310 
	C452.713745,704.458801 452.752899,704.912292 452.792084,705.365784 
	C424.866364,708.827637 396.940643,712.289490 368.123016,715.861877 
	C387.121735,741.996216 405.653107,767.487610 424.501282,793.414795 
	C425.925018,791.270142 427.087189,789.661438 428.104248,787.965759 
	C438.892670,769.978943 450.084045,752.216614 460.322601,733.921326 
	C473.351715,710.639404 484.424652,686.415588 491.366119,660.521362 
	C493.331146,653.191101 492.768921,645.910034 488.721741,639.321472 
	C487.762909,637.760498 485.638855,636.078247 483.939484,635.952148 
	C475.984283,635.362000 467.990204,635.296204 459.502380,634.482361 
	C457.400269,633.835144 455.298157,633.187988 454.078491,632.320801 
	C460.401642,632.275269 466.724762,632.229797 473.630005,632.679016 
	C476.094971,632.135925 478.559967,631.592834 481.270081,630.383850 
	C490.571167,610.195679 501.725372,591.115540 516.115173,574.122986 
	C519.994934,569.541443 521.290039,564.858948 520.991028,559.103943 
	C520.654480,552.626465 520.937134,546.117004 520.945312,539.621460 
	C520.950500,535.532104 520.946350,531.442749 520.946350,527.434570 
	C500.101593,525.738953 480.044220,524.107361 459.986847,522.475830 
	C459.873108,521.928772 459.759399,521.381775 459.645660,520.834717 
	C474.114441,511.010742 489.903229,503.604767 506.800049,496.877167 
	C501.861145,489.747314 497.089600,483.389099 492.879059,476.678833 
	C481.427063,458.427948 464.931366,449.463654 443.550659,448.739746 
	C431.930298,448.346283 420.324280,447.495239 408.717834,446.755493 
	C406.580322,446.619293 404.471924,446.027069 401.551331,445.501617 
	C411.526123,436.401306 420.648987,428.078217 430.795502,418.821228 
	C418.046021,413.403442 406.617706,408.547089 395.189392,403.690704 
	C395.297699,403.286804 395.406006,402.882874 395.514313,402.478943 
	C412.870636,397.733093 430.226959,392.987213 448.260376,388.056213 
	C436.322784,375.411896 425.081970,363.505585 413.606628,351.350891 
	C422.782654,343.074493 431.480621,335.229279 440.484711,327.107941 
	C443.528656,331.620117 446.106628,335.441589 448.824768,339.789581 
	C449.120148,339.992950 449.415558,340.196320 449.710968,340.399689 
	C449.550934,339.866882 449.390900,339.334076 449.146545,338.057648 
	C448.343658,335.876221 447.578949,333.679810 446.730774,331.516144 
	C444.014740,324.587891 444.025116,324.641693 451.008606,321.476807 
	C456.211426,319.118927 461.347137,316.612976 466.512756,314.172974 
	C465.344238,313.176514 464.424744,313.078888 463.503296,313.053741 
	C449.741974,312.678192 435.935974,312.883636 422.228577,311.818512 
	C397.792999,309.919769 375.494873,301.396393 355.878571,286.808258 
	C350.380829,282.719757 345.233673,282.295197 339.291168,283.110138 
	C318.538544,285.955994 299.313110,293.106110 281.765656,304.460785 
	C266.977386,314.029999 250.665207,317.984192 233.417374,320.119507 
	C219.654190,321.823364 206.037857,324.973419 192.503204,328.114380 
	C188.098846,329.136475 184.157974,332.155792 180.005112,334.261627 
	C180.164505,334.672882 180.323914,335.084106 180.483307,335.495331 
	C190.938690,337.744354 201.394073,339.993378 211.974808,342.269348 
	C208.120316,365.482147 201.392639,387.074524 190.498047,407.889984 
	C199.820633,412.450104 208.686340,416.786743 218.301315,421.489868 
	C206.628693,430.865082 195.644257,439.687561 183.627090,449.339508 
	C192.817825,452.225739 200.409805,454.609863 208.132034,457.330566 
	C208.422791,457.312653 208.713562,457.294739 209.796066,457.302094 
	C214.865952,458.210632 219.935837,459.119171 225.328400,460.505341 
	C226.183243,460.466003 227.038071,460.426666 228.679947,460.278564 
	C230.794235,460.552216 232.908508,460.825867 235.363464,461.557312 
	C236.211823,461.486450 237.060181,461.415588 238.828949,461.212799 
	C246.838776,461.314697 254.848602,461.416595 262.903168,461.938751 
	C262.875824,462.352448 262.848480,462.766144 261.985870,463.522003 
	C256.956696,463.885284 251.927505,464.248566 246.564682,464.289612 
	C246.051849,464.483429 245.539001,464.677246 244.234894,465.028839 
	C242.123993,465.236237 240.013092,465.443634 237.476700,465.270142 
	C236.650009,465.519135 235.823303,465.768097 234.264664,466.143616 
	C232.807175,466.301239 231.349686,466.458893 229.478836,466.255280 
	C228.663803,466.453125 227.848770,466.650970 226.273514,467.086334 
	C217.932358,468.783173 209.591202,470.480011 200.775742,472.151062 
	C200.449570,472.210480 200.191254,472.375763 199.211700,472.863251 
	C192.636108,474.551727 186.060501,476.240173 179.384506,477.997437 
M122.326378,121.871071 
	C120.547913,124.876007 118.568771,127.781570 117.023643,130.902054 
	C107.175224,150.791443 101.658813,171.848450 99.711418,193.956528 
	C97.529213,218.730408 100.301544,242.664322 109.866982,265.783752 
	C117.562904,284.384613 129.521027,296.845428 150.483841,300.717621 
	C182.487213,306.629272 214.466614,310.163269 246.754333,304.804474 
	C268.937256,301.122772 288.854919,292.280640 303.813507,274.568024 
	C320.511993,254.795181 331.075226,232.215332 335.242279,206.594559 
	C339.766174,178.779999 336.239014,152.255859 323.099426,127.219460 
	C316.053101,113.793251 307.094910,101.614532 294.362793,93.242668 
	C276.781158,81.682076 256.578918,78.133827 235.943771,77.101395 
	C219.245575,76.265938 202.670883,77.994217 186.511429,82.154488 
	C161.329147,88.637688 138.780853,99.745682 122.326378,121.871071 
M572.225830,245.663651 
	C574.833923,240.118378 578.284241,234.806030 579.894165,228.984711 
	C584.978149,210.601959 584.962708,191.815216 581.592651,173.184204 
	C576.608459,145.629166 563.799866,122.449333 542.485229,103.779030 
	C523.313110,86.985390 501.097748,79.079765 476.059601,77.993584 
	C462.209930,77.392769 448.516724,78.775177 435.030151,81.952354 
	C392.777161,91.906311 364.512817,117.150558 354.165863,159.634109 
	C347.934479,185.219727 344.203644,211.464569 343.194885,237.915588 
	C342.889618,245.920624 343.334900,254.161652 348.588531,260.758026 
	C352.913116,266.187897 357.564331,271.625641 363.011566,275.845551 
	C383.367065,291.614502 407.157196,297.943237 432.440582,298.754761 
	C459.038300,299.608429 485.404816,296.834137 510.852509,288.933197 
	C535.533020,281.270477 556.873535,268.145996 572.225830,245.663651 
M490.843842,799.927429 
	C494.979675,800.276550 499.110901,800.697205 503.252106,800.962524 
	C521.922241,802.159119 538.669434,796.161499 554.355591,786.782776 
	C579.721680,771.616150 593.912109,749.949524 593.037598,719.530579 
	C592.454224,699.239380 592.572632,678.925537 591.817444,658.642700 
	C591.385498,647.042725 590.147461,635.445435 588.717346,623.915833 
	C586.023315,602.197021 582.959961,580.523682 579.983826,558.840454 
	C578.735840,549.748047 577.319092,540.678894 575.840637,530.661377 
	C565.885498,544.510010 556.414673,557.308472 547.343567,570.384277 
	C530.010620,595.369385 518.896545,623.320129 508.893341,651.806702 
	C500.137177,676.742126 491.407013,701.698242 481.913605,726.355774 
	C479.273285,733.213501 478.528412,738.653259 482.816071,744.856018 
	C485.819580,749.201111 487.868195,754.206238 490.343292,758.916626 
	C490.066772,759.054138 489.790253,759.191711 489.513702,759.329285 
	C483.827118,752.125244 478.140533,744.921265 471.995453,737.136414 
	C462.256073,755.452637 453.039703,772.785339 443.557404,790.618164 
	C459.731476,793.821289 474.842743,796.813904 490.843842,799.927429 
M545.246582,441.223389 
	C535.140076,416.594910 523.279175,392.872772 508.846436,369.651367 
	C507.630981,371.959473 506.717773,373.489990 505.991394,375.104523 
	C499.165161,390.277832 492.572205,405.560974 485.446350,420.591705 
	C483.272675,425.176697 483.487274,428.663086 485.907562,433.018188 
	C496.660370,452.367310 506.957092,471.970184 517.751160,491.295593 
	C519.288452,494.047943 522.323425,496.440979 525.222107,497.872955 
	C537.751831,504.062775 550.516235,509.775391 563.133240,515.791748 
	C566.956238,517.614685 570.579712,519.855774 574.294617,521.905334 
	C574.737610,521.605042 575.180542,521.304688 575.623535,521.004395 
	C565.607849,494.640198 555.592163,468.276001 545.246582,441.223389 
M353.810852,843.995850 
	C356.782074,843.777466 360.030426,844.256714 362.671509,843.207336 
	C370.023804,840.286072 377.646851,837.528442 384.199615,833.235657 
	C393.710968,827.004761 402.377655,819.484619 411.926056,812.111633 
	C404.065277,803.386963 396.764404,795.237854 389.373749,787.171021 
	C388.805176,786.550293 387.573944,786.171326 386.701721,786.249512 
	C374.963959,787.300537 363.256622,788.877380 351.498749,789.469299 
	C337.743988,790.161865 323.943085,790.309753 310.170044,790.120850 
	C302.634399,790.017578 295.114990,788.731750 287.467865,787.967163 
	C286.755096,791.535400 286.187683,794.621277 285.518158,797.684875 
	C282.747833,810.360962 282.670135,810.468140 293.714569,817.149231 
	C312.373993,828.436890 331.032349,839.779114 353.810852,843.995850 
M363.578613,732.908569 
	C361.420074,727.687744 359.440186,722.380554 356.984711,717.303345 
	C356.321930,715.932861 354.128235,714.295776 352.787933,714.419006 
	C342.049744,715.407043 331.328125,716.652100 320.655609,718.193359 
	C319.026642,718.428650 316.969604,720.301331 316.311127,721.908508 
	C312.030518,732.356567 308.066284,742.934570 304.028870,753.481689 
	C300.241882,763.374451 296.492432,773.281616 292.434692,783.949463 
	C323.461761,789.313477 353.570038,788.009399 384.151978,782.201538 
	C377.187927,765.493164 370.542236,749.548706 363.578613,732.908569 
M153.470215,435.963440 
	C159.500992,447.568207 165.531769,459.172943 172.104752,471.821045 
	C182.824036,441.945801 184.440308,413.390228 174.282471,383.858704 
	C164.112366,389.098877 154.438797,394.278839 144.574295,399.065369 
	C140.858185,400.868561 140.263351,402.977173 141.727783,406.557281 
	C145.628555,416.093384 149.344498,425.705048 153.470215,435.963440 
M462.622559,373.117676 
	C447.724457,393.455292 439.312592,416.162933 436.887024,442.579041 
	C460.930359,423.592529 472.497528,398.316895 482.908783,372.247314 
	C470.257812,365.283936 468.783020,365.328247 462.622559,373.117676 
M540.244629,527.993835 
	C534.765381,526.360901 531.979980,527.652466 530.254395,532.838745 
	C528.644897,537.676208 529.751404,541.987793 533.202209,545.701904 
	C537.291931,550.103516 543.427307,549.050476 545.741028,543.566101 
	C548.124207,537.916870 546.389954,532.438599 540.244629,527.993835 
M170.986237,360.831207 
	C176.759781,356.304596 177.357346,350.135620 176.792908,343.007904 
	C171.266418,342.706635 166.324982,343.526123 162.098846,346.741547 
	C157.866241,349.961853 158.229614,354.811401 159.372833,359.056641 
	C160.528275,363.347229 164.782791,361.697693 167.908188,361.821808 
	C168.686203,361.852692 169.483231,361.405182 170.986237,360.831207 
M327.849091,275.445953 
	C331.309967,277.535645 337.131409,276.649017 338.322021,273.231934 
	C339.314240,270.384399 340.422485,266.795105 336.862000,264.293182 
	C332.769623,261.417542 328.063019,261.726898 325.352173,265.165558 
	C323.235596,267.850403 324.131989,272.603210 327.849091,275.445953 
M479.041260,328.496887 
	C475.154968,326.627106 469.521057,327.824097 468.224243,330.795074 
	C466.679596,334.333771 468.477722,338.131500 472.301544,340.725616 
	C476.329468,343.458221 479.753754,341.007721 481.284088,338.501282 
	C482.917175,335.826691 483.820801,331.509552 479.041260,328.496887 
z"/>
<path fill="#FCFFFE" opacity="1.000000" stroke="none" 
	d="
M460.010010,635.043091 
	C467.990204,635.296204 475.984283,635.362000 483.939484,635.952148 
	C485.638855,636.078247 487.762909,637.760498 488.721741,639.321472 
	C492.768921,645.910034 493.331146,653.191101 491.366119,660.521362 
	C484.424652,686.415588 473.351715,710.639404 460.322601,733.921326 
	C450.084045,752.216614 438.892670,769.978943 428.104248,787.965759 
	C427.087189,789.661438 425.925018,791.270142 424.501282,793.414795 
	C405.653107,767.487610 387.121735,741.996216 368.123016,715.861877 
	C396.940643,712.289490 424.866364,708.827637 452.792084,705.365784 
	C452.752899,704.912292 452.713745,704.458801 452.674591,704.005310 
	C446.121857,704.411438 439.558258,704.690918 433.018616,705.250244 
	C419.453217,706.410583 405.896484,707.677063 392.343567,708.977051 
	C371.852875,710.942505 351.289551,712.387695 330.902710,715.134827 
	C308.570343,718.144043 286.324249,721.970825 264.195129,726.242249 
	C251.602692,728.672852 239.319275,732.704712 227.137848,737.099365 
	C247.920242,734.941528 268.702637,732.783752 291.085480,730.459778 
	C279.762543,751.736023 269.104828,771.762390 258.509766,791.670959 
	C251.449081,784.977234 244.364349,779.000854 238.145493,772.229248 
	C217.772171,750.045105 197.865677,727.431519 177.429611,705.306335 
	C172.173645,699.615967 165.631073,695.113953 159.299316,689.847839 
	C158.739624,689.647095 158.560165,689.664429 158.380707,689.681763 
	C158.592804,689.782837 158.804901,689.883789 159.016998,689.984802 
	C162.154755,696.332275 164.450378,703.302612 168.594666,708.905579 
	C179.270981,723.339783 190.507874,737.383362 202.003387,751.180969 
	C214.225449,765.850525 227.002411,780.057739 239.769012,794.733459 
	C238.353561,795.767578 237.907623,796.310059 237.352524,796.467346 
	C222.498993,800.677002 207.751740,805.345947 192.737854,808.881287 
	C178.111694,812.325195 163.374741,811.198120 148.894821,807.052734 
	C117.847168,798.164246 91.956383,781.964844 75.210648,753.611816 
	C64.628883,735.695374 58.015476,716.058472 55.186005,695.489319 
	C53.200306,681.054077 52.149418,666.370544 52.188885,651.802002 
	C52.263348,624.314636 58.716534,597.851074 67.126709,571.801453 
	C82.882286,523.000183 100.963432,475.088165 121.508392,428.104309 
	C121.760277,427.528320 122.144730,427.010345 122.934196,425.676392 
	C125.827690,432.114197 128.487274,437.960114 131.086136,443.832916 
	C133.982361,450.377655 136.761200,456.974976 139.717819,463.491974 
	C140.969711,466.251465 140.983231,468.092651 138.134155,470.180969 
	C130.894394,475.487671 123.863197,481.105560 117.059113,486.959839 
	C115.511887,488.291077 114.367943,491.135101 114.489815,493.197021 
	C115.470047,509.781372 116.900192,526.339111 117.876572,542.923645 
	C117.985588,544.775330 116.599129,547.321899 115.095184,548.565063 
	C103.811913,557.891907 92.396500,567.064209 80.851105,576.065002 
	C77.988365,578.296814 77.641747,579.994446 79.654198,583.020264 
	C87.951889,595.496216 95.736900,608.323608 104.328072,620.589172 
	C108.199150,626.115906 108.782089,631.316956 107.807999,637.763000 
	C103.892448,663.674438 100.426460,689.654968 96.961502,715.632324 
	C95.932869,723.344177 95.451698,731.129028 95.703911,738.999023 
	C101.915405,702.716187 108.126907,666.433350 114.411064,629.726135 
	C128.030777,648.765442 141.217270,667.199097 154.403763,685.632751 
	C154.921539,685.393982 155.439316,685.155212 155.957092,684.916443 
	C153.583420,673.835083 151.209732,662.753662 148.836044,651.672302 
	C149.159912,651.508789 149.483780,651.345215 149.807648,651.181702 
	C160.519653,663.977661 171.231644,676.773682 181.943649,689.569641 
	C182.315582,689.443420 182.687531,689.317139 183.059464,689.190918 
	C182.288788,682.767822 181.561523,676.339172 180.735519,669.923218 
	C179.867264,663.178772 178.837296,656.454651 178.009308,649.705566 
	C177.545776,645.927429 176.303940,643.133545 172.758118,640.836426 
	C160.337753,632.789978 147.956116,624.684753 139.231293,612.149719 
	C132.574585,602.585999 129.507294,591.839478 127.442841,580.684143 
	C127.242508,579.601624 128.913345,577.585754 130.193741,576.912415 
	C138.007584,572.803589 146.015442,569.064331 153.837433,564.970337 
	C156.852264,563.392334 161.370895,562.966492 160.853455,557.810547 
	C160.280945,552.106018 158.858383,546.723633 152.762848,544.625793 
	C148.233856,543.067139 143.491150,542.057556 138.782288,541.107605 
	C126.682098,538.666443 126.496109,538.655273 131.515442,527.688477 
	C135.667313,518.616943 140.037369,509.624817 144.767838,500.843750 
	C150.510574,490.183655 159.615662,483.578796 171.851868,480.516418 
	C172.616959,480.355621 172.713959,480.178131 172.654388,479.914307 
	C174.567627,479.420593 176.480850,478.926880 178.859283,478.397461 
	C179.324478,478.361816 179.550659,478.200439 179.550659,478.200439 
	C179.550659,478.200439 179.484909,477.928650 179.484909,477.928650 
	C186.060501,476.240173 192.636108,474.551727 199.841797,472.783691 
	C200.796753,472.625092 201.056137,472.449310 201.250046,472.176849 
	C209.591202,470.480011 217.932358,468.783173 226.845749,467.200958 
	C228.242722,467.082550 229.067459,466.849548 229.892197,466.616516 
	C231.349686,466.458893 232.807175,466.301239 234.842651,466.292053 
	C236.247833,466.177338 237.075012,465.914185 237.902191,465.651001 
	C240.013092,465.443634 242.123993,465.236237 244.782257,465.163208 
	C245.852524,465.069000 246.375427,464.840424 246.898315,464.611816 
	C251.927505,464.248566 256.956696,463.885284 262.795074,463.516205 
	C269.792938,462.771271 275.981567,462.032166 282.170227,461.293030 
	C282.121063,460.859680 282.071899,460.426331 282.022705,459.992981 
	C275.634613,460.501465 269.246521,461.009979 262.858429,461.518463 
	C254.848602,461.416595 246.838776,461.314697 238.223419,461.012299 
	C236.752869,460.907715 235.887833,461.003601 235.022797,461.099518 
	C232.908508,460.825867 230.794235,460.552216 228.151550,460.058380 
	C226.750671,459.901367 225.878189,459.964539 225.005722,460.027710 
	C219.935837,459.119171 214.865952,458.210632 209.164978,457.163574 
	C208.356522,457.014740 208.179153,457.004364 208.001785,456.994019 
	C200.409805,454.609863 192.817825,452.225739 183.627090,449.339508 
	C195.644257,439.687561 206.628693,430.865082 218.301315,421.489868 
	C208.686340,416.786743 199.820633,412.450104 190.498047,407.889984 
	C201.392639,387.074524 208.120316,365.482147 211.974808,342.269348 
	C201.394073,339.993378 190.938690,337.744354 180.483307,335.495331 
	C180.323914,335.084106 180.164505,334.672882 180.005112,334.261627 
	C184.157974,332.155792 188.098846,329.136475 192.503204,328.114380 
	C206.037857,324.973419 219.654190,321.823364 233.417374,320.119507 
	C250.665207,317.984192 266.977386,314.029999 281.765656,304.460785 
	C299.313110,293.106110 318.538544,285.955994 339.291168,283.110138 
	C345.233673,282.295197 350.380829,282.719757 355.878571,286.808258 
	C375.494873,301.396393 397.792999,309.919769 422.228577,311.818512 
	C435.935974,312.883636 449.741974,312.678192 463.503296,313.053741 
	C464.424744,313.078888 465.344238,313.176514 466.512756,314.172974 
	C461.347137,316.612976 456.211426,319.118927 451.008606,321.476807 
	C444.025116,324.641693 444.014740,324.587891 446.730774,331.516144 
	C447.578949,333.679810 448.343658,335.876221 449.053162,338.546082 
	C448.959778,339.034546 448.684601,339.263062 448.684601,339.263062 
	C446.106628,335.441589 443.528656,331.620117 440.484711,327.107941 
	C431.480621,335.229279 422.782654,343.074493 413.606628,351.350891 
	C425.081970,363.505585 436.322784,375.411896 448.260376,388.056213 
	C430.226959,392.987213 412.870636,397.733093 395.514313,402.478943 
	C395.406006,402.882874 395.297699,403.286804 395.189392,403.690704 
	C406.617706,408.547089 418.046021,413.403442 430.795502,418.821228 
	C420.648987,428.078217 411.526123,436.401306 401.551331,445.501617 
	C404.471924,446.027069 406.580322,446.619293 408.717834,446.755493 
	C420.324280,447.495239 431.930298,448.346283 443.550659,448.739746 
	C464.931366,449.463654 481.427063,458.427948 492.879059,476.678833 
	C497.089600,483.389099 501.861145,489.747314 506.800049,496.877167 
	C489.903229,503.604767 474.114441,511.010742 459.645660,520.834717 
	C459.759399,521.381775 459.873108,521.928772 459.986847,522.475830 
	C480.044220,524.107361 500.101593,525.738953 520.946350,527.434570 
	C520.946350,531.442749 520.950500,535.532104 520.945312,539.621460 
	C520.937134,546.117004 520.654480,552.626465 520.991028,559.103943 
	C521.290039,564.858948 519.994934,569.541443 516.115173,574.122986 
	C501.725372,591.115540 490.571167,610.195679 480.717865,630.755249 
	C477.793091,631.479248 475.420502,631.831787 473.047913,632.184326 
	C466.724762,632.229797 460.401642,632.275269 453.171600,632.285034 
	C444.467163,632.493469 436.670074,632.929810 428.871979,632.948608 
	C396.011536,633.027588 363.150726,632.981995 330.290070,632.981995 
	C330.264435,633.660950 330.238800,634.339905 330.213135,635.018860 
	C332.602356,635.281982 334.991302,635.771851 337.380798,635.774536 
	C376.823059,635.819031 416.265381,635.810303 455.707672,635.767334 
	C457.142029,635.765808 458.575897,635.295105 460.010010,635.043091 
z"/>
<path fill="#FCFFFE" opacity="1.000000" stroke="none" 
	d="
M122.523880,121.568085 
	C138.780853,99.745682 161.329147,88.637688 186.511429,82.154488 
	C202.670883,77.994217 219.245575,76.265938 235.943771,77.101395 
	C256.578918,78.133827 276.781158,81.682076 294.362793,93.242668 
	C307.094910,101.614532 316.053101,113.793251 323.099426,127.219460 
	C336.239014,152.255859 339.766174,178.779999 335.242279,206.594559 
	C331.075226,232.215332 320.511993,254.795181 303.813507,274.568024 
	C288.854919,292.280640 268.937256,301.122772 246.754333,304.804474 
	C214.466614,310.163269 182.487213,306.629272 150.483841,300.717621 
	C129.521027,296.845428 117.562904,284.384613 109.866982,265.783752 
	C100.301544,242.664322 97.529213,218.730408 99.711418,193.956528 
	C101.658813,171.848450 107.175224,150.791443 117.023643,130.902054 
	C118.568771,127.781570 120.547913,124.876007 122.523880,121.568085 
M233.242172,204.141006 
	C240.029465,216.394562 251.227814,219.153931 263.915985,217.843369 
	C279.066437,216.278458 297.120728,206.194153 294.893341,185.333710 
	C293.977478,176.756622 292.387848,168.428879 285.508057,162.461761 
	C271.310181,150.147446 251.085571,151.428116 238.405777,165.226013 
	C228.359024,176.158691 226.310287,190.488235 233.242172,204.141006 
z"/>
<path fill="#FCFFFE" opacity="1.000000" stroke="none" 
	d="
M572.050659,245.980499 
	C556.873535,268.145996 535.533020,281.270477 510.852509,288.933197 
	C485.404816,296.834137 459.038300,299.608429 432.440582,298.754761 
	C407.157196,297.943237 383.367065,291.614502 363.011566,275.845551 
	C357.564331,271.625641 352.913116,266.187897 348.588531,260.758026 
	C343.334900,254.161652 342.889618,245.920624 343.194885,237.915588 
	C344.203644,211.464569 347.934479,185.219727 354.165863,159.634109 
	C364.512817,117.150558 392.777161,91.906311 435.030151,81.952354 
	C448.516724,78.775177 462.209930,77.392769 476.059601,77.993584 
	C501.097748,79.079765 523.313110,86.985390 542.485229,103.779030 
	C563.799866,122.449333 576.608459,145.629166 581.592651,173.184204 
	C584.962708,191.815216 584.978149,210.601959 579.894165,228.984711 
	C578.284241,234.806030 574.833923,240.118378 572.050659,245.980499 
M424.632996,164.896881 
	C423.553772,163.861282 422.520660,162.772003 421.387787,161.798813 
	C413.790192,155.272034 395.481720,153.767029 388.455994,159.173065 
	C379.873413,165.777054 373.146851,173.900528 369.106506,184.023483 
	C368.343140,185.936035 367.931427,188.248291 368.189819,190.269730 
	C371.221771,213.990814 400.685944,223.091141 417.670868,214.061600 
	C433.404541,205.697250 436.428406,177.306168 424.632996,164.896881 
z"/>
<path fill="#FCFFFE" opacity="1.000000" stroke="none" 
	d="
M490.398926,799.866943 
	C474.842743,796.813904 459.731476,793.821289 443.557404,790.618164 
	C453.039703,772.785339 462.256073,755.452637 471.995453,737.136414 
	C478.140533,744.921265 483.827118,752.125244 489.513702,759.329285 
	C489.790253,759.191711 490.066772,759.054138 490.343292,758.916626 
	C487.868195,754.206238 485.819580,749.201111 482.816071,744.856018 
	C478.528412,738.653259 479.273285,733.213501 481.913605,726.355774 
	C491.407013,701.698242 500.137177,676.742126 508.893341,651.806702 
	C518.896545,623.320129 530.010620,595.369385 547.343567,570.384277 
	C556.414673,557.308472 565.885498,544.510010 575.840637,530.661377 
	C577.319092,540.678894 578.735840,549.748047 579.983826,558.840454 
	C582.959961,580.523682 586.023315,602.197021 588.717346,623.915833 
	C590.147461,635.445435 591.385498,647.042725 591.817444,658.642700 
	C592.572632,678.925537 592.454224,699.239380 593.037598,719.530579 
	C593.912109,749.949524 579.721680,771.616150 554.355591,786.782776 
	C538.669434,796.161499 521.922241,802.159119 503.252106,800.962524 
	C499.110901,800.697205 494.979675,800.276550 490.398926,799.866943 
z"/>
<path fill="#FCFEFD" opacity="1.000000" stroke="none" 
	d="
M545.411499,441.567596 
	C555.592163,468.276001 565.607849,494.640198 575.623535,521.004395 
	C575.180542,521.304688 574.737610,521.605042 574.294617,521.905334 
	C570.579712,519.855774 566.956238,517.614685 563.133240,515.791748 
	C550.516235,509.775391 537.751831,504.062775 525.222107,497.872955 
	C522.323425,496.440979 519.288452,494.047943 517.751160,491.295593 
	C506.957092,471.970184 496.660370,452.367310 485.907562,433.018188 
	C483.487274,428.663086 483.272675,425.176697 485.446350,420.591705 
	C492.572205,405.560974 499.165161,390.277832 505.991394,375.104523 
	C506.717773,373.489990 507.630981,371.959473 508.846436,369.651367 
	C523.279175,392.872772 535.140076,416.594910 545.411499,441.567596 
z"/>
<path fill="#FCFEFD" opacity="1.000000" stroke="none" 
	d="
M353.366272,843.975220 
	C331.032349,839.779114 312.373993,828.436890 293.714569,817.149231 
	C282.670135,810.468140 282.747833,810.360962 285.518158,797.684875 
	C286.187683,794.621277 286.755096,791.535400 287.467865,787.967163 
	C295.114990,788.731750 302.634399,790.017578 310.170044,790.120850 
	C323.943085,790.309753 337.743988,790.161865 351.498749,789.469299 
	C363.256622,788.877380 374.963959,787.300537 386.701721,786.249512 
	C387.573944,786.171326 388.805176,786.550293 389.373749,787.171021 
	C396.764404,795.237854 404.065277,803.386963 411.926056,812.111633 
	C402.377655,819.484619 393.710968,827.004761 384.199615,833.235657 
	C377.646851,837.528442 370.023804,840.286072 362.671509,843.207336 
	C360.030426,844.256714 356.782074,843.777466 353.366272,843.975220 
z"/>
<path fill="#FCFEFD" opacity="1.000000" stroke="none" 
	d="
M363.737610,733.256348 
	C370.542236,749.548706 377.187927,765.493164 384.151978,782.201538 
	C353.570038,788.009399 323.461761,789.313477 292.434692,783.949463 
	C296.492432,773.281616 300.241882,763.374451 304.028870,753.481689 
	C308.066284,742.934570 312.030518,732.356567 316.311127,721.908508 
	C316.969604,720.301331 319.026642,718.428650 320.655609,718.193359 
	C331.328125,716.652100 342.049744,715.407043 352.787933,714.419006 
	C354.128235,714.295776 356.321930,715.932861 356.984711,717.303345 
	C359.440186,722.380554 361.420074,727.687744 363.737610,733.256348 
z"/>
<path fill="#FCFEFD" opacity="1.000000" stroke="none" 
	d="
M153.302063,435.625061 
	C149.344498,425.705048 145.628555,416.093384 141.727783,406.557281 
	C140.263351,402.977173 140.858185,400.868561 144.574295,399.065369 
	C154.438797,394.278839 164.112366,389.098877 174.282471,383.858704 
	C184.440308,413.390228 182.824036,441.945801 172.104752,471.821045 
	C165.531769,459.172943 159.500992,447.568207 153.302063,435.625061 
z"/>
<path fill="#FAFDFD" opacity="1.000000" stroke="none" 
	d="
M462.839050,372.827087 
	C468.783020,365.328247 470.257812,365.283936 482.908783,372.247314 
	C472.497528,398.316895 460.930359,423.592529 436.887024,442.579041 
	C439.312592,416.162933 447.724457,393.455292 462.839050,372.827087 
z"/>
<path fill="#A7BFD1" opacity="1.000000" stroke="none" 
	d="
M459.756195,634.762695 
	C458.575897,635.295105 457.142029,635.765808 455.707672,635.767334 
	C416.265381,635.810303 376.823059,635.819031 337.380798,635.774536 
	C334.991302,635.771851 332.602356,635.281982 330.213135,635.018860 
	C330.238800,634.339905 330.264435,633.660950 330.290070,632.981995 
	C363.150726,632.981995 396.011536,633.027588 428.871979,632.948608 
	C436.670074,632.929810 444.467163,632.493469 452.730347,632.395020 
	C455.298157,633.187988 457.400269,633.835144 459.756195,634.762695 
z"/>
<path fill="#FAFDFD" opacity="1.000000" stroke="none" 
	d="
M540.583862,528.170227 
	C546.389954,532.438599 548.124207,537.916870 545.741028,543.566101 
	C543.427307,549.050476 537.291931,550.103516 533.202209,545.701904 
	C529.751404,541.987793 528.644897,537.676208 530.254395,532.838745 
	C531.979980,527.652466 534.765381,526.360901 540.583862,528.170227 
z"/>
<path fill="#FAFDFD" opacity="1.000000" stroke="none" 
	d="
M170.628876,361.004395 
	C169.483231,361.405182 168.686203,361.852692 167.908188,361.821808 
	C164.782791,361.697693 160.528275,363.347229 159.372833,359.056641 
	C158.229614,354.811401 157.866241,349.961853 162.098846,346.741547 
	C166.324982,343.526123 171.266418,342.706635 176.792908,343.007904 
	C177.357346,350.135620 176.759781,356.304596 170.628876,361.004395 
z"/>
<path fill="#FAFDFD" opacity="1.000000" stroke="none" 
	d="
M327.534973,275.259613 
	C324.131989,272.603210 323.235596,267.850403 325.352173,265.165558 
	C328.063019,261.726898 332.769623,261.417542 336.862000,264.293182 
	C340.422485,266.795105 339.314240,270.384399 338.322021,273.231934 
	C337.131409,276.649017 331.309967,277.535645 327.534973,275.259613 
z"/>
<path fill="#FAFDFD" opacity="1.000000" stroke="none" 
	d="
M479.391327,328.698303 
	C483.820801,331.509552 482.917175,335.826691 481.284088,338.501282 
	C479.753754,341.007721 476.329468,343.458221 472.301544,340.725616 
	C468.477722,338.131500 466.679596,334.333771 468.224243,330.795074 
	C469.521057,327.824097 475.154968,326.627106 479.391327,328.698303 
z"/>
<path fill="#A7BFD1" opacity="1.000000" stroke="none" 
	d="
M262.880798,461.728607 
	C269.246521,461.009979 275.634613,460.501465 282.022705,459.992981 
	C282.071899,460.426331 282.121063,460.859680 282.170227,461.293030 
	C275.981567,462.032166 269.792938,462.771271 263.212708,463.345123 
	C262.848480,462.766144 262.875824,462.352448 262.880798,461.728607 
z"/>
<path fill="#A7BFD1" opacity="1.000000" stroke="none" 
	d="
M473.338959,632.431702 
	C475.420502,631.831787 477.793091,631.479248 480.595306,631.088196 
	C478.559967,631.592834 476.094971,632.135925 473.338959,632.431702 
z"/>
<path fill="#A7BFD1" opacity="1.000000" stroke="none" 
	d="
M237.689453,465.460571 
	C237.075012,465.914185 236.247833,466.177338 235.208618,466.228760 
	C235.823303,465.768097 236.650009,465.519135 237.689453,465.460571 
z"/>
<path fill="#A7BFD1" opacity="1.000000" stroke="none" 
	d="
M229.685516,466.435913 
	C229.067459,466.849548 228.242722,467.082550 227.225861,467.082214 
	C227.848770,466.650970 228.663803,466.453125 229.685516,466.435913 
z"/>
<path fill="#A7BFD1" opacity="1.000000" stroke="none" 
	d="
M235.193130,461.328430 
	C235.887833,461.003601 236.752869,460.907715 237.763214,461.078247 
	C237.060181,461.415588 236.211823,461.486450 235.193130,461.328430 
z"/>
<path fill="#A7BFD1" opacity="1.000000" stroke="none" 
	d="
M225.167053,460.266510 
	C225.878189,459.964539 226.750671,459.901367 227.758026,460.112762 
	C227.038071,460.426666 226.183243,460.466003 225.167053,460.266510 
z"/>
<path fill="#A7BFD1" opacity="1.000000" stroke="none" 
	d="
M246.731506,464.450745 
	C246.375427,464.840424 245.852524,465.069000 245.177887,465.084290 
	C245.539001,464.677246 246.051849,464.483429 246.731506,464.450745 
z"/>
<path fill="#FCFFFE" opacity="1.000000" stroke="none" 
	d="
M449.095337,338.917908 
	C449.390900,339.334076 449.550934,339.866882 449.710968,340.399689 
	C449.415558,340.196320 449.120148,339.992950 448.754700,339.526306 
	C448.684601,339.263062 448.959778,339.034546 449.095337,338.917908 
z"/>
<path fill="#A7BFD1" opacity="1.000000" stroke="none" 
	d="
M201.012894,472.163940 
	C201.056137,472.449310 200.796753,472.625092 200.236328,472.675537 
	C200.191254,472.375763 200.449570,472.210480 201.012894,472.163940 
z"/>
<path fill="#A7BFD1" opacity="1.000000" stroke="none" 
	d="
M179.434708,477.963043 
	C179.484909,477.928650 179.550659,478.200439 179.550659,478.200439 
	C179.550659,478.200439 179.324478,478.361816 179.254242,478.238159 
	C179.184006,478.114532 179.384506,477.997437 179.434708,477.963043 
z"/>
<path fill="#A7BFD1" opacity="1.000000" stroke="none" 
	d="
M172.551819,479.963867 
	C172.713959,480.178131 172.616959,480.355621 172.223907,480.357666 
	C172.084457,480.268555 172.449234,480.013458 172.551819,479.963867 
z"/>
<path fill="#A7BFD1" opacity="1.000000" stroke="none" 
	d="
M208.066910,457.162292 
	C208.179153,457.004364 208.356522,457.014740 208.769104,457.150940 
	C208.713562,457.294739 208.422791,457.312653 208.066910,457.162292 
z"/>
<path fill="#89ABC3" opacity="1.000000" stroke="none" 
	d="
M159.009186,689.991821 
	C158.804901,689.883789 158.592804,689.782837 158.380707,689.681763 
	C158.560165,689.664429 158.739624,689.647095 158.953766,689.821716 
	C158.988419,690.013733 159.001373,689.998901 159.009186,689.991821 
z"/>
<path fill="#88AAC2" opacity="1.000000" stroke="none" 
	d="
M233.090424,203.802795 
	C226.310287,190.488235 228.359024,176.158691 238.405777,165.226013 
	C251.085571,151.428116 271.310181,150.147446 285.508057,162.461761 
	C292.387848,168.428879 293.977478,176.756622 294.893341,185.333710 
	C297.120728,206.194153 279.066437,216.278458 263.915985,217.843369 
	C251.227814,219.153931 240.029465,216.394562 233.090424,203.802795 
z"/>
<path fill="#88AAC2" opacity="1.000000" stroke="none" 
	d="
M424.879333,165.158463 
	C436.428406,177.306168 433.404541,205.697250 417.670868,214.061600 
	C400.685944,223.091141 371.221771,213.990814 368.189819,190.269730 
	C367.931427,188.248291 368.343140,185.936035 369.106506,184.023483 
	C373.146851,173.900528 379.873413,165.777054 388.455994,159.173065 
	C395.481720,153.767029 413.790192,155.272034 421.387787,161.798813 
	C422.520660,162.772003 423.553772,163.861282 424.879333,165.158463 
z"/>
</svg>