<?xml version="1.0" encoding="UTF-8"?>
<svg version="1.1" xmlns="http://www.w3.org/2000/svg" width="677" height="906">
<path d="M0 0 C223.41 0 446.82 0 677 0 C677 298.98 677 597.96 677 906 C453.59 906 230.18 906 0 906 C0 607.02 0 308.04 0 0 Z " fill="#89AAC2" transform="translate(0,0)"/>
<path d="M0 0 C223.41 0 446.82 0 677 0 C677 298.98 677 597.96 677 906 C453.59 906 230.18 906 0 906 C0 607.02 0 308.04 0 0 Z M197 64 C196.27474121 64.16097168 195.54948242 64.32194336 194.80224609 64.48779297 C174.66399303 69.14747766 154.3236584 77.64453665 136.77734375 88.60546875 C126.51665712 94.95518432 126.51665712 94.95518432 122.48828125 95.07421875 C120.12911736 94.29364512 118.17347306 93.20668933 116 92 C113.48515517 91.0720626 110.97296862 90.17831605 108.4375 89.3125 C106.29133013 88.54260414 104.14538048 87.77209283 102 87 C102.31212466 90.60419927 102.62477095 94.20835312 102.9375 97.8125 C103.02451172 98.81732422 103.11152344 99.82214844 103.20117188 100.85742188 C103.78421061 107.57316432 104.38431904 114.2871717 105 121 C92.77558861 106.29705381 91.85764348 94.28308851 93.359375 76.078125 C93.56402262 74.05116564 93.77399185 72.02468891 94 70 C90.90520048 73.72550486 88.90506266 77.90149241 86.76171875 82.2109375 C86.35846878 83.01552399 85.95521881 83.82011047 85.53974915 84.64907837 C84.68639649 86.35442426 83.83505853 88.06077959 82.9855957 89.76806641 C81.7078879 92.33405548 80.4218443 94.89573233 79.13476562 97.45703125 C76.71658538 102.28565149 74.34304495 107.13451071 72 112 C71.65712952 112.70692993 71.31425903 113.41385986 70.96099854 114.14221191 C70.04236438 116.05706426 69.15080082 117.98178362 68.26953125 119.9140625 C67.77686768 120.97834473 67.2842041 122.04262695 66.77661133 123.13916016 C65.8306215 126.62394757 66.25594973 127.89169452 68 131 C69.18221287 132.72567733 69.18221287 132.72567733 70.57421875 134.234375 C71.07405273 134.80333496 71.57388672 135.37229492 72.08886719 135.95849609 C72.61641602 136.54969238 73.14396484 137.14088867 73.6875 137.75 C74.76984854 139.00753949 75.85188082 140.26535124 76.93359375 141.5234375 C78.6891661 143.54167152 80.45538206 145.45613977 82.34765625 147.3515625 C86.62948879 151.90595522 87.54337471 155.6941033 87.5 161.875 C87.35696969 165.41500027 87.1105428 168.90508416 86.75482178 172.4284668 C86.09507959 179.03047129 85.82618557 185.56257975 85.796875 192.1953125 C85.78832489 193.74289749 85.78832489 193.74289749 85.77960205 195.32174683 C85.77022148 197.49150591 85.763646 199.6612788 85.75976562 201.83105469 C85.75008608 205.09596492 85.71900555 208.3602375 85.6875 211.625 C85.62593413 223.76247801 86.27419251 235.1607697 89 247 C89.19352051 247.87172852 89.38704102 248.74345703 89.58642578 249.64160156 C94.48589925 270.17053366 105.50672343 292.73576306 123.66796875 304.26171875 C133.22346431 309.24670764 143.20753332 312.43278103 153.5625 315.3125 C154.81869141 315.67150391 156.07488281 316.03050781 157.36914062 316.40039062 C163.59291537 318.29975506 163.59291537 318.29975506 170 319 C167.95953274 322.63177507 165.71381615 325.58268448 162.875 328.625 C148.45163892 344.41869651 135.92556298 361.63068975 125 380 C124.59152832 380.68610352 124.18305664 381.37220703 123.76220703 382.07910156 C116.94757878 393.73111582 112.25917508 406.11783289 107.58007812 418.74462891 C104.70101781 426.51046663 101.7752952 434.25891971 98.85391235 442.00891113 C98.11564287 443.96747948 97.37783238 445.9262209 96.64047241 447.88513184 C91.83424716 460.64705689 86.91886295 473.35526488 81.8125 486 C51.68972049 560.71151351 19.00756249 647.71457669 48 728 C48.27215332 728.75651855 48.54430664 729.51303711 48.82470703 730.29248047 C57.24715665 753.13794433 71.70850499 775.82036893 91 791 C92.41345703 792.15048828 92.41345703 792.15048828 93.85546875 793.32421875 C120.68276101 814.84693837 151.90729214 825.59833009 186.35205078 822.80957031 C191.64248689 822.22134392 196.81092822 821.16992123 202 820 C203.47702393 819.66935547 203.47702393 819.66935547 204.98388672 819.33203125 C224.31313745 814.91525218 243.15066239 809.10037806 262 803 C262.04825928 803.96212402 262.09651855 804.92424805 262.14624023 805.91552734 C262.68571105 815.89064516 263.73646333 825.72687556 265.0625 835.625 C265.34376221 837.73797934 265.62333955 839.85112623 265.89830017 841.9649353 C266.14440641 843.85556926 266.39634514 845.74544139 266.64868164 847.63525391 C267.61791156 856.91803835 267.61791156 856.91803835 264.1875 861.3125 C260.70150747 865.99368997 257.47347083 870.78415329 254.3125 875.6875 C253.6177356 876.75641479 253.6177356 876.75641479 252.90893555 877.84692383 C250.12471181 882.15663991 247.50574311 886.5225246 245 891 C253.88977245 889.75756957 262.58178525 888.07604989 271.3125 886 C272.9840918 885.60941406 272.9840918 885.60941406 274.68945312 885.2109375 C280.47208058 883.85515273 286.24248813 882.45866318 292 881 C290.70513196 869.64240559 288.93245338 858.4301005 286.875 847.1875 C286.45856986 844.90099451 286.04342864 842.61427956 285.63137817 840.32698059 C285.37810139 838.92194287 285.12227363 837.51736181 284.86349487 836.11332703 C284.3651102 833.3561828 284 830.80971943 284 828 C284.90234375 828.49886719 285.8046875 828.99773438 286.734375 829.51171875 C323.35546518 851.55933405 323.35546518 851.55933405 363.8046875 856.234375 C378.71389568 850.84733286 392.7056025 842.54469355 406 834 C404.80051707 846.07374262 403.1614899 858.05319345 401.32128906 870.04614258 C401.06557129 871.72293091 401.06557129 871.72293091 400.8046875 873.43359375 C400.64983887 874.43447021 400.49499023 875.43534668 400.33544922 876.46655273 C399.93436872 879.06974734 399.93436872 879.06974734 400 882 C417.16 882 434.32 882 452 882 C447.86784269 876.97573433 447.86784269 876.97573433 443.3125 872.6875 C439.16031099 869.15220765 435.12808978 865.49779098 431.1015625 861.8203125 C429.13276579 859.96323333 429.13276579 859.96323333 427 859 C426.85033763 853.92624049 427.3607797 849.27758349 428.42578125 844.3359375 C428.57403854 843.62200836 428.72229584 842.90807922 428.87504578 842.17251587 C429.34770362 839.90526013 429.83007493 837.64019509 430.3125 835.375 C430.62495699 833.87903312 430.93681062 832.38294008 431.24804688 830.88671875 C432.88187851 823.07251748 434.59879391 815.2866889 436.47338867 807.52587891 C437.10204892 804.94055653 437.10204892 804.94055653 437 802 C437.8986377 802.25177002 438.79727539 802.50354004 439.72314453 802.76293945 C448.38911106 805.13934403 457.05318843 807.14216217 465.88183594 808.81030273 C467.89655567 809.19157931 469.90923194 809.5825329 471.921875 809.97460938 C492.12079485 813.87331788 515.46025019 816.73265884 535 809 C535.68642578 808.73687012 536.37285156 808.47374023 537.08007812 808.20263672 C563.74164539 797.82576682 587.36650291 780.15305394 600 754 C603.07022235 745.80978258 605.11120667 737.95505281 605.16113281 729.19824219 C605.16601841 728.53103936 605.17090401 727.86383654 605.17593765 727.17641544 C605.19033596 724.96656139 605.19714316 722.75676687 605.203125 720.546875 C605.21008349 718.98386093 605.21712452 717.42084722 605.22424316 715.85783386 C605.24377617 710.82188646 605.24842595 705.78598107 605.25 700.75 C605.25058914 699.89624409 605.25117828 699.04248817 605.25178528 698.16286087 C605.26422809 672.71608069 604.94649561 647.44580633 602.22460938 622.11932373 C601.99833596 619.98429881 601.78623805 617.84829221 601.578125 615.71142578 C592.39259541 522.05965839 564.71784458 433.43613342 491.52905273 322.48144531 C488.87497263 318.72691195 486.28135258 314.99841299 484 311 C484.92425781 310.9175 485.84851563 310.835 486.80078125 310.75 C492.18614233 309.97236952 497.12919715 307.93675762 502.1875 306 C503.2381665 305.60135742 504.28883301 305.20271484 505.37133789 304.79199219 C512.30863528 302.12440441 519.15614104 299.2919109 525.9375 296.25 C526.72213623 295.89808594 527.50677246 295.54617188 528.31518555 295.18359375 C557.07076085 281.99868255 579.22269523 260.89110571 591.74609375 231.76953125 C595.24322951 221.25633496 596.46118336 211.33122021 596.33563232 200.31784058 C596.31194563 198.00845032 596.31783585 195.70034541 596.32666016 193.39086914 C596.31872658 186.63027425 596.19148868 180.1230183 594.91015625 173.4609375 C592.42674669 160.4981829 592.42674669 160.4981829 595.671875 155.34521484 C600.47118788 149.51307111 606.03881188 144.61305048 612 140 C611.54220183 138.40496855 611.07888862 136.81151937 610.61328125 135.21875 C610.22716675 133.8874707 610.22716675 133.8874707 609.83325195 132.52929688 C608.99855375 129.7701984 608.99855375 129.7701984 607.1875 126.5 C604.07064796 117.31348872 610.24240169 104.31639651 612.69726562 95.28515625 C613.00728516 94.11855469 613.31730469 92.95195313 613.63671875 91.75 C613.92248779 90.69296875 614.20825684 89.6359375 614.50268555 88.546875 C615.26483995 86.02106586 615.26483995 86.02106586 614 84 C608.62427896 89.85864633 603.45395704 95.83062041 598.453125 102.01171875 C595.6654828 105.40749309 592.80816513 108.73696489 589.9375 112.0625 C585.15523287 117.60704762 580.52818405 123.24516947 576 129 C576.99810155 122.66050218 578.33345398 116.45172111 579.98046875 110.25 C580.24756149 109.2432019 580.24756149 109.2432019 580.52005005 108.21606445 C581.26277186 105.43119868 582.01137249 102.64800093 582.76733398 99.86669922 C583.3248017 97.80883074 583.8720127 95.74844741 584.41796875 93.6875 C584.74563232 92.47449219 585.0732959 91.26148437 585.41088867 90.01171875 C586.26291587 86.96797526 586.26291587 86.96797526 585 84 C575.66430365 94.72908636 575.66430365 94.72908636 567 106 C563.67358844 104.54562723 561.47709549 102.70099367 558.875 100.1875 C529.64297407 73.4917822 495.59741817 60.13408994 455.99267578 61.72607422 C420.48265037 63.73522651 388.77459726 82.34330999 365.2277832 108.01782227 C356.8227591 117.51487937 349.58754077 128.18310426 343 139 C340.81489294 136.21794097 339.0686861 133.42358588 337.43359375 130.2890625 C321.28604393 99.75413515 301.95802852 76.96805009 268.03222656 66.38623047 C263.72279548 65.0968888 259.3832268 64.00630373 255 63 C254.03835937 62.773125 253.07671875 62.54625 252.0859375 62.3125 C234.235712 58.84830529 214.66644059 60.05453412 197 64 Z " fill="#FCFDFD" transform="translate(0,0)"/>
<path d="M0 0 C8.0545097 -0.64047908 12.44901627 2.14181351 18.67578125 6.91015625 C40.27322749 23.20360392 68.03212807 29.37468925 94.58984375 29.87109375 C96.00238686 29.9022654 96.00238686 29.9022654 97.44346619 29.93406677 C100.41797395 29.99885528 103.3925613 30.05811451 106.3671875 30.1171875 C108.39779431 30.16044015 110.42839341 30.20405646 112.45898438 30.24804688 C117.40747291 30.35446293 122.35604056 30.45592416 127.3046875 30.5546875 C123.24431958 33.76426816 118.95462347 35.67230895 114.2421875 37.7421875 C113.42685547 38.11021484 112.61152344 38.47824219 111.77148438 38.85742188 C110.98708984 39.20482422 110.20269531 39.55222656 109.39453125 39.91015625 C108.68159912 40.22621826 107.96866699 40.54228027 107.23413086 40.86791992 C105.3046875 41.5546875 105.3046875 41.5546875 102.3046875 41.5546875 C102.82160156 42.75867188 103.33851563 43.96265625 103.87109375 45.203125 C104.53686607 46.77847358 105.20220849 48.35400389 105.8671875 49.9296875 C106.20943359 50.72375 106.55167969 51.5178125 106.90429688 52.3359375 C107.38286133 53.47675781 107.38286133 53.47675781 107.87109375 54.640625 C108.16959229 55.3423584 108.46809082 56.0440918 108.77563477 56.76708984 C109.3046875 58.5546875 109.3046875 58.5546875 108.3046875 60.5546875 C105.3346875 55.6046875 102.3646875 50.6546875 99.3046875 45.5546875 C93.8624268 49.41374509 89.20050423 53.52137129 84.55859375 58.30859375 C81.77168708 61.08584043 78.79830569 63.57738159 75.73828125 66.046875 C73.96016477 67.57028817 73.96016477 67.57028817 74.3046875 70.5546875 C75.91739312 72.55574687 77.53414428 74.39069195 79.3046875 76.2421875 C79.80581055 76.7774707 80.30693359 77.31275391 80.82324219 77.86425781 C84.29348388 81.55180537 87.85896245 85.13664775 91.46875 88.6875 C93.98040722 91.24190884 96.29964883 93.9439182 98.62890625 96.6640625 C100.26283837 98.5074731 101.97009772 100.21984912 103.7421875 101.9296875 C106.3046875 104.5546875 106.3046875 104.5546875 106.3046875 106.5546875 C99.30966958 108.61608426 92.31017561 110.66146657 85.3046875 112.68701172 C83.51497913 113.20464059 81.72574067 113.72390525 79.9375 114.24658203 C70.75272016 116.91887789 61.79522805 118.53159377 52.3046875 119.5546875 C52.3046875 120.2146875 52.3046875 120.8746875 52.3046875 121.5546875 C53.0059375 121.67021973 53.7071875 121.78575195 54.4296875 121.90478516 C57.58085141 122.61711518 60.32985018 123.69393214 63.3046875 124.953125 C64.4390625 125.43265625 65.5734375 125.9121875 66.7421875 126.40625 C67.9178125 126.90898437 69.0934375 127.41171875 70.3046875 127.9296875 C71.4803125 128.4246875 72.6559375 128.9196875 73.8671875 129.4296875 C78.88292805 131.56137723 83.67957337 133.65230086 88.3046875 136.5546875 C84.69424645 140.97747778 81.01698899 144.82522868 76.6640625 148.51171875 C74.80266427 150.12349238 72.99317272 151.76067935 71.1953125 153.44140625 C70.65600098 153.94446289 70.11668945 154.44751953 69.56103516 154.96582031 C68.48434891 155.97321965 67.41102357 156.98422466 66.34130859 157.99902344 C62.52562571 161.5546875 62.52562571 161.5546875 60.3046875 161.5546875 C60.3046875 162.2146875 60.3046875 162.8746875 60.3046875 163.5546875 C61.86026367 163.62985596 61.86026367 163.62985596 63.44726562 163.70654297 C67.37645691 163.89804137 71.3052081 164.09759574 75.23388672 164.29931641 C76.91900177 164.38477238 78.60422225 164.46817954 80.28955078 164.54931641 C109.8064489 165.97499843 109.8064489 165.97499843 123.9921875 170.3671875 C125.25192383 170.72006836 125.25192383 170.72006836 126.53710938 171.08007812 C131.71487687 172.64201749 134.72470821 174.33247391 138.3046875 178.5546875 C139.036875 179.30105469 139.7690625 180.04742187 140.5234375 180.81640625 C148.31558861 189.10223816 154.82494689 198.22723542 161.3046875 207.5546875 C161.72395508 208.15071777 162.14322266 208.74674805 162.57519531 209.36083984 C165.3046875 213.3160873 165.3046875 213.3160873 165.3046875 215.5546875 C164.66402344 215.72484375 164.02335937 215.895 163.36328125 216.0703125 C158.52836807 217.42495286 154.37164913 218.90114446 150.109375 221.54296875 C148.10040324 222.66921049 146.09737465 223.40238554 143.9296875 224.1796875 C137.89385053 226.47816412 132.51118093 229.84573433 127.01806641 233.20166016 C125.95338135 233.84820557 125.95338135 233.84820557 124.8671875 234.5078125 C124.22910156 234.90129883 123.59101563 235.29478516 122.93359375 235.70019531 C121.3046875 236.5546875 121.3046875 236.5546875 119.3046875 236.5546875 C119.3046875 237.2146875 119.3046875 237.8746875 119.3046875 238.5546875 C139.2740345 241.18876208 159.20074004 242.54532219 179.3046875 243.5546875 C181.85948025 284.60543436 181.85948025 284.60543436 174.90625 293.97973633 C172.43807873 296.66237554 169.88018895 299.20166259 167.19433594 301.66601562 C163.91088599 304.9477687 161.58920596 308.79772253 159.1796875 312.7421875 C158.46111572 313.89460937 158.46111572 313.89460937 157.72802734 315.0703125 C150.91850763 326.1886421 145.12942411 337.90033433 139.3046875 349.5546875 C112.80849748 350.56019932 86.3175347 350.86092985 59.8046875 351.1171875 C45.4496875 351.2615625 31.0946875 351.4059375 16.3046875 351.5546875 C80.1596875 352.0496875 80.1596875 352.0496875 145.3046875 352.5546875 C150.91675109 363.77881468 153.0942204 370.18787467 149.21484375 381.8515625 C148.9951593 382.51879837 148.77547485 383.18603424 148.5491333 383.87348938 C147.83575942 386.02220008 147.10312608 388.16360945 146.3671875 390.3046875 C146.11858978 391.03912079 145.86999207 391.77355408 145.61386108 392.53024292 C141.5388658 404.55222391 136.93489018 416.16752336 131.3046875 427.5546875 C130.64306973 428.91919354 129.9816083 430.28377539 129.3203125 431.6484375 C127.70180421 434.95751372 126.03909901 438.24174351 124.35253906 441.51660156 C123.63908219 442.90428515 122.93027381 444.29436631 122.22558594 445.68652344 C114.94617308 460.06065713 106.73758572 473.83159979 98.3046875 487.5546875 C97.7173584 488.51197754 97.1300293 489.46926758 96.52490234 490.45556641 C94.89775534 493.09834332 93.26056892 495.73448119 91.6171875 498.3671875 C91.13652832 499.14320313 90.65586914 499.91921875 90.16064453 500.71875 C87.83377348 504.40718536 85.58874392 507.62441701 82.3046875 510.5546875 C77.06531281 504.39723507 72.45014326 497.93563428 67.9296875 491.2421875 C63.38736301 484.52017451 58.68636234 478.02066903 53.68359375 471.63671875 C50.80367573 467.90559343 48.07217601 464.07961729 45.35498047 460.22998047 C42.81188577 456.63744928 40.22397981 453.08305616 37.59765625 449.55078125 C36.95989258 448.69242676 36.32212891 447.83407227 35.66503906 446.94970703 C34.40071829 445.25163884 33.13322715 443.55592577 31.86230469 441.86279297 C31.28512695 441.08693848 30.70794922 440.31108398 30.11328125 439.51171875 C29.59564209 438.82053955 29.07800293 438.12936035 28.54467773 437.41723633 C27.3046875 435.5546875 27.3046875 435.5546875 26.3046875 432.5546875 C44.48199959 430.12877717 62.56757488 427.85529881 80.8671875 426.6171875 C91.17971161 425.91548389 101.19386497 424.69378959 111.3046875 422.5546875 C111.3046875 422.2246875 111.3046875 421.8946875 111.3046875 421.5546875 C110.07251244 421.66077835 110.07251244 421.66077835 108.81544495 421.76901245 C100.95015817 422.44608113 93.08480813 423.12240948 85.21939182 423.79797173 C81.17886128 424.14503827 77.13835301 424.49235942 73.09790039 424.84033203 C69.19220833 425.17667652 65.28646215 425.51238513 61.38066864 425.84754944 C59.82827183 425.98080628 58.27588847 426.11421983 56.72351837 426.24778748 C48.16906535 426.98330718 39.61405806 427.69307115 31.05262756 428.34347534 C18.29700784 429.31774197 5.61926678 430.68838024 -7.0703125 432.3046875 C-8.09991089 432.43507416 -9.12950928 432.56546082 -10.19030762 432.69979858 C-44.94233825 437.12544972 -79.1948013 443.05179706 -112.6953125 453.5546875 C-111.59654785 453.43875244 -110.4977832 453.32281738 -109.36572266 453.20336914 C-105.24693622 452.76885223 -101.12811219 452.33469253 -97.00927734 451.90063477 C-95.23452766 451.7135561 -93.45978786 451.52638358 -91.68505859 451.33911133 C-86.71285399 450.81446959 -81.74038229 450.29249135 -76.76763916 449.77297974 C-75.00726984 449.58754808 -73.24746536 449.39676659 -71.48779297 449.20483398 C-66.82630757 448.70649458 -62.26644511 448.44222864 -57.5703125 448.4921875 C-56.45398438 448.50121094 -55.33765625 448.51023437 -54.1875 448.51953125 C-53.36507812 448.53113281 -52.54265625 448.54273438 -51.6953125 448.5546875 C-53.0619964 452.99274979 -54.80908149 456.98675059 -56.93359375 461.11328125 C-57.25108078 461.73138672 -57.56856781 462.34949219 -57.89567566 462.98632812 C-58.92798196 464.99094858 -59.96739055 466.99176859 -61.0078125 468.9921875 C-61.36069336 469.67411163 -61.71357422 470.35603577 -62.07714844 471.05862427 C-68.64065983 483.73551936 -75.53143257 496.20593085 -82.6953125 508.5546875 C-85.6953125 508.5546875 -85.6953125 508.5546875 -87.66894531 506.9375 C-88.40467773 506.19242188 -89.14041016 505.44734375 -89.8984375 504.6796875 C-90.71441406 503.85855469 -91.53039062 503.03742188 -92.37109375 502.19140625 C-93.22058594 501.32128906 -94.07007813 500.45117188 -94.9453125 499.5546875 C-95.77933594 498.71550781 -96.61335937 497.87632812 -97.47265625 497.01171875 C-102.40716911 492.01523399 -107.14381892 486.90128768 -111.6953125 481.5546875 C-112.19675781 480.96977539 -112.69820312 480.38486328 -113.21484375 479.78222656 C-114.66937171 478.08366971 -116.12004293 476.38188069 -117.5703125 474.6796875 C-121.11932583 470.52262061 -124.70205272 466.40893248 -128.3828125 462.3671875 C-131.48499258 458.95647234 -134.42769524 455.4573499 -137.3203125 451.8671875 C-140.38136896 448.0833816 -143.53740554 444.58917509 -147.03515625 441.2109375 C-148.75056085 439.49956915 -150.31329107 437.71279342 -151.8828125 435.8671875 C-160.46557325 425.95957107 -170.74983607 414.30376305 -182.6953125 408.5546875 C-175.83662537 421.92402142 -168.25552492 433.9613875 -158.6953125 445.5546875 C-158.1890332 446.16989258 -157.68275391 446.78509766 -157.16113281 447.41894531 C-154.05418787 451.17376468 -150.8906527 454.8748925 -147.6953125 458.5546875 C-147.06109375 459.28945313 -146.426875 460.02421875 -145.7734375 460.78125 C-141.86331483 465.28327198 -137.8637073 469.70403108 -133.87109375 474.1328125 C-130.77706063 477.5767991 -127.7267222 481.05554076 -124.6953125 484.5546875 C-124.26347656 485.04952637 -123.83164063 485.54436523 -123.38671875 486.05419922 C-117.75630041 492.51048854 -112.1981624 499.02278291 -106.8828125 505.7421875 C-106.22478638 506.55272583 -106.22478638 506.55272583 -105.5534668 507.37963867 C-104.36328125 508.91015625 -104.36328125 508.91015625 -102.6953125 511.5546875 C-103.0253125 512.5446875 -103.3553125 513.5346875 -103.6953125 514.5546875 C-106.40063477 515.65795898 -106.40063477 515.65795898 -110.01171875 516.67578125 C-110.97765457 516.95319908 -110.97765457 516.95319908 -111.96310425 517.23622131 C-114.05800362 517.83414621 -116.15748833 518.41363475 -118.2578125 518.9921875 C-119.68844585 519.39507624 -121.11886628 519.79872179 -122.54907227 520.203125 C-160.81131459 530.96953905 -191.50298641 530.55785472 -226.79296875 510.8671875 C-257.8138703 492.88667953 -274.28930618 464.12482134 -283.4453125 430.3046875 C-284.25545511 427.06681078 -284.98717757 423.81624783 -285.6953125 420.5546875 C-285.89141113 419.68585938 -286.08750977 418.81703125 -286.28955078 417.921875 C-292.16542885 390.93991976 -291.98379673 360.64036906 -286.6953125 333.5546875 C-286.51790527 332.61173828 -286.34049805 331.66878906 -286.15771484 330.69726562 C-273.73528411 266.59372993 -246.17345068 202.96200117 -219.6953125 143.5546875 C-216.56451876 146.18390102 -215.2980514 149.24456521 -213.6640625 152.9453125 C-213.38687378 153.56815125 -213.10968506 154.19098999 -212.82409668 154.83270264 C-211.94131323 156.82055001 -211.06825027 158.81249987 -210.1953125 160.8046875 C-209.60869899 162.12918371 -209.0214655 163.45340552 -208.43359375 164.77734375 C-206.84354688 168.3651906 -205.26369396 171.95730268 -203.6953125 175.5546875 C-203.40132568 176.16421265 -203.10733887 176.77373779 -202.80444336 177.4017334 C-201.61171692 179.94426636 -200.66713379 181.96427955 -200.80273438 184.80541992 C-201.90100784 186.9578076 -203.07902926 188.047127 -204.9765625 189.54296875 C-205.65460938 190.08501953 -206.33265625 190.62707031 -207.03125 191.18554688 C-207.74539062 191.74048828 -208.45953125 192.29542969 -209.1953125 192.8671875 C-209.87851563 193.41052734 -210.56171875 193.95386719 -211.265625 194.51367188 C-211.95398438 195.05958984 -212.64234375 195.60550781 -213.3515625 196.16796875 C-214.39775757 197.02769287 -214.39775757 197.02769287 -215.46508789 197.90478516 C-217.6953125 199.5546875 -217.6953125 199.5546875 -220.26733398 200.79443359 C-223.32641114 202.45374491 -224.83246742 203.58465899 -226.6953125 206.5546875 C-227.82913856 213.45333468 -226.54543003 220.67351843 -225.7578125 227.5546875 C-225.56774747 229.46700425 -225.38215883 231.37977148 -225.20117188 233.29296875 C-225.11240784 234.2280426 -225.0236438 235.16311646 -224.93218994 236.12652588 C-224.84499695 237.05156921 -224.75780396 237.97661255 -224.66796875 238.9296875 C-224.58077576 239.84683533 -224.49358276 240.76398315 -224.40374756 241.70892334 C-224.15890187 244.32348988 -223.92394234 246.93865662 -223.6953125 249.5546875 C-223.62654907 250.31801392 -223.55778564 251.08134033 -223.48693848 251.86779785 C-222.61065825 262.69964586 -222.61065825 262.69964586 -224.9777832 266.74804688 C-226.80804908 268.58167959 -228.63685329 269.91361068 -230.8203125 271.3046875 C-231.90324585 272.08416748 -231.90324585 272.08416748 -233.00805664 272.87939453 C-234.49288513 273.9479509 -235.99088051 274.9984482 -237.50146484 276.03027344 C-240.8338373 278.34580133 -243.97029171 280.89010077 -247.1328125 283.4296875 C-248.26793665 284.32104486 -249.40460445 285.21044067 -250.54296875 286.09765625 C-252.55085636 287.66266406 -254.55867621 289.2277588 -256.56640625 290.79296875 C-258.60785753 292.38217965 -260.65055713 293.96973161 -262.6953125 295.5546875 C-262.05688754 299.70444974 -259.79061416 302.90281898 -257.5703125 306.3671875 C-256.92618408 307.38498291 -256.92618408 307.38498291 -256.26904297 308.42333984 C-250.92583237 316.82991674 -245.46992244 325.1652547 -240.015625 333.5 C-239.44102539 334.39364258 -238.86642578 335.28728516 -238.27441406 336.20800781 C-236.64304154 338.72980976 -236.64304154 338.72980976 -234.1875 341.484375 C-230.59704043 348.87207453 -234.1050868 359.8916744 -235.40234375 367.80078125 C-235.74393717 369.94247423 -236.08506481 372.08424154 -236.42578125 374.22607422 C-236.60286621 375.33142517 -236.77995117 376.43677612 -236.96240234 377.57562256 C-239.74208424 394.98813972 -242.35112992 412.39107478 -244.1953125 429.9296875 C-244.31768784 431.08209427 -244.31768784 431.08209427 -244.4425354 432.25778198 C-245.11924471 438.7029861 -245.73014602 445.06637883 -245.6953125 451.5546875 C-245.48455582 450.31298294 -245.27379913 449.07127838 -245.05665588 447.79194641 C-243.07105102 436.09403638 -241.08467763 424.39625707 -239.09755039 412.69860554 C-238.07595826 406.68463406 -237.0546376 400.67061675 -236.03393555 394.65649414 C-235.04902359 388.8533123 -234.06340091 383.05025158 -233.07728386 377.2472744 C-232.70105576 375.03253675 -232.32508443 372.81775547 -231.94937325 370.60293007 C-231.42338868 367.50250503 -230.89649411 364.40223593 -230.36938477 361.30200195 C-230.21401749 360.38490448 -230.05865021 359.46780701 -229.89857483 358.5229187 C-229.21734094 354.52138218 -228.52626131 350.52856047 -227.6953125 346.5546875 C-227.0353125 346.5546875 -226.3753125 346.5546875 -225.6953125 346.5546875 C-224.01051194 349.15093754 -222.43484452 351.75516471 -220.8828125 354.4296875 C-212.00486887 369.33110224 -201.53386492 383.0381622 -190.6953125 396.5546875 C-189.93347656 397.50730469 -189.17164063 398.45992187 -188.38671875 399.44140625 C-187.82855469 400.13878906 -187.27039063 400.83617187 -186.6953125 401.5546875 C-186.83630371 400.84973145 -186.97729492 400.14477539 -187.12255859 399.41845703 C-189.31347656 388.46386719 -191.50439453 377.50927734 -193.6953125 366.5546875 C-189.89142167 370.26139863 -186.38330662 374.13327802 -182.9453125 378.1796875 C-182.42163086 378.79360352 -181.89794922 379.40751953 -181.35839844 380.04003906 C-173.96180582 388.73633801 -166.80903572 397.6265195 -159.6953125 406.5546875 C-160.29108414 397.12677534 -161.40070884 387.83845972 -162.7578125 378.4921875 C-163.12617273 375.93915793 -163.49216758 373.38578564 -163.85546875 370.83203125 C-164.01668213 369.72077881 -164.17789551 368.60952637 -164.34399414 367.46459961 C-164.6953125 364.5546875 -164.6953125 364.5546875 -164.6953125 360.5546875 C-165.3553125 360.33554687 -166.0153125 360.11640625 -166.6953125 359.890625 C-186.15227688 351.22619555 -202.8983044 334.26653261 -210.625 314.6171875 C-215.7349929 299.99589395 -215.7349929 299.99589395 -213.6953125 294.5546875 C-211.30972289 292.96244913 -209.17107832 291.76709285 -206.59765625 290.56640625 C-205.53436852 290.04431328 -205.53436852 290.04431328 -204.44960022 289.51167297 C-202.1852284 288.40466233 -199.90962954 287.32333346 -197.6328125 286.2421875 C-196.09489637 285.49580064 -194.55777555 284.74777269 -193.02148438 283.99804688 C-189.25505526 282.16442847 -185.47836308 280.35374665 -181.6953125 278.5546875 C-181.57020598 273.27519246 -181.81659926 270.07837973 -184.6953125 265.5546875 C-188.07552274 262.35238306 -191.90058243 261.53983294 -196.3203125 260.5546875 C-197.75043687 260.21799611 -199.18012649 259.87945274 -200.609375 259.5390625 C-201.30450195 259.37470703 -201.99962891 259.21035156 -202.71582031 259.04101562 C-206.75946438 258.0475599 -210.72370445 256.79906109 -214.6953125 255.5546875 C-212.40318543 248.07387553 -209.33435848 241.16216683 -205.9453125 234.1171875 C-205.19507813 232.51520508 -205.19507813 232.51520508 -204.4296875 230.88085938 C-201.10345133 223.93564432 -197.29603617 217.72377193 -192.6953125 211.5546875 C-191.7053125 210.1625 -191.7053125 210.1625 -190.6953125 208.7421875 C-188.06261482 205.86267441 -185.17910916 203.35006516 -181.6953125 201.5546875 C-180.3753125 201.5546875 -179.0553125 201.5546875 -177.6953125 201.5546875 C-177.6953125 200.8946875 -177.6953125 200.2346875 -177.6953125 199.5546875 C-142.99931952 189.4417899 -106.15078033 179.5190208 -69.6953125 180.5546875 C-69.6953125 179.8946875 -69.6953125 179.2346875 -69.6953125 178.5546875 C-70.74581787 178.57563477 -71.79632324 178.59658203 -72.87866211 178.61816406 C-133.37317278 179.71575736 -133.37317278 179.71575736 -157.6953125 167.5546875 C-157.6953125 166.8946875 -157.6953125 166.2346875 -157.6953125 165.5546875 C-155.79116894 163.95326947 -153.88288687 162.46536806 -151.8828125 160.9921875 C-150.68378746 160.09131706 -149.48588925 159.18894511 -148.2890625 158.28515625 C-147.68449219 157.82931152 -147.07992187 157.3734668 -146.45703125 156.90380859 C-142.96515495 154.22973591 -139.60075052 151.39964053 -136.21484375 148.59375 C-133.27977083 146.21838866 -130.25190866 144.00439339 -127.15625 141.84375 C-125.40279967 140.51404155 -125.40279967 140.51404155 -124.6953125 137.5546875 C-125.48292969 137.48894531 -126.27054688 137.42320312 -127.08203125 137.35546875 C-132.00751627 136.26387477 -136.06927526 134.09081546 -140.5078125 131.7421875 C-141.37857422 131.30326172 -142.24933594 130.86433594 -143.14648438 130.41210938 C-143.97341797 129.97833984 -144.80035156 129.54457031 -145.65234375 129.09765625 C-146.40491455 128.70602295 -147.15748535 128.31438965 -147.93286133 127.91088867 C-149.6953125 126.5546875 -149.6953125 126.5546875 -150.52001953 124.55883789 C-150.79569767 121.40696902 -149.30436421 119.52553558 -147.7578125 116.8046875 C-138.34603624 99.11724521 -133.99480601 78.97175496 -129.6953125 59.5546875 C-130.77039063 59.58175781 -131.84546875 59.60882813 -132.953125 59.63671875 C-136.1010931 59.56771319 -137.77280236 59.41281942 -140.5703125 58.2421875 C-147.67003924 55.64019341 -155.25944166 54.75842779 -162.6953125 53.5546875 C-162.6953125 52.8946875 -162.6953125 52.2346875 -162.6953125 51.5546875 C-148.87170016 41.41737179 -129.08143078 39.41205177 -112.5703125 37.4921875 C-92.09499269 35.09164495 -76.39264091 30.65597783 -58.43359375 20.61328125 C-39.24363297 9.91232164 -21.74715158 3.26437159 0 0 Z " fill="#FCFDFD" transform="translate(340.6953125,281.4453125)"/>
<path d="M0 0 C27.73889709 -0.72428843 60.53461378 1.95035627 81.8581543 21.91821289 C98.5129311 38.38334604 108.90364227 58.36391469 114.34667969 81.07373047 C114.59160156 82.07533203 114.83652344 83.07693359 115.08886719 84.10888672 C121.81625937 118.34486199 112.96414094 155.6622886 93.87011719 184.47216797 C90.34179381 189.60551123 86.42519841 194.36716527 82.34667969 199.07373047 C81.17685547 200.5490625 81.17685547 200.5490625 79.98339844 202.05419922 C77.31345218 205.26120658 74.29071505 207.75238416 70.97167969 210.26123047 C70.43285156 210.68597656 69.89402344 211.11072266 69.33886719 211.54833984 C65.55794183 214.44254818 61.7919265 216.29357376 57.34667969 218.07373047 C55.79814169 218.87305671 54.25578748 219.68454694 52.72167969 220.51123047 C46.79359888 223.48868282 40.73555576 225.34584762 34.34667969 227.07373047 C33.35176514 227.34636719 32.35685059 227.61900391 31.33178711 227.89990234 C19.76536075 230.62774305 8.24280067 230.5283533 -3.59277344 230.46484375 C-7.1185655 230.44888775 -10.6431899 230.46469291 -14.16894531 230.48388672 C-28.8835293 230.49786215 -43.13382459 229.46547929 -57.65332031 227.07373047 C-58.89194824 226.86973633 -60.13057617 226.66574219 -61.40673828 226.45556641 C-76.28873438 223.78041458 -90.99119311 220.72747865 -100.65332031 208.07373047 C-121.65896273 176.04611598 -126.83025234 135.60734115 -119.15820312 98.3828125 C-112.53859137 68.10801171 -101.92787829 39.64133232 -74.93261719 21.94580078 C-52.26424673 7.72655022 -26.67218649 0.74116676 0 0 Z " fill="#FCFDFD" transform="translate(219.6533203125,75.92626953125)"/>
<path d="M0 0 C0.67417969 0.17160645 1.34835937 0.34321289 2.04296875 0.52001953 C17.32941878 4.53163716 29.92639118 11.88677763 42 22 C42.51981445 22.43328613 43.03962891 22.86657227 43.57519531 23.31298828 C67.36362434 43.41010935 79.81971812 71.41051606 83.75 101.9375 C85.56469485 127.29896708 83.64434918 152.32584589 66.95703125 172.7578125 C45.61649811 197.20784448 17.43768897 208.87046425 -13.90136719 214.44775391 C-15.82081654 214.78984297 -17.73857664 215.14176213 -19.65332031 215.50927734 C-32.64068421 217.97733685 -45.57046097 218.30811224 -58.75 218.375 C-59.56921936 218.38294586 -60.38843872 218.39089172 -61.23248291 218.39907837 C-76.08461239 218.50978741 -91.02386631 217.34673322 -105.125 212.3125 C-105.8574292 212.05758789 -106.5898584 211.80267578 -107.34448242 211.54003906 C-126.4035139 204.67361946 -144.71270612 194.15468094 -154.5 175.625 C-159.1762081 164.32416376 -157.38145574 150.31257955 -156.22265625 138.35546875 C-156.13614807 137.4615593 -156.04963989 136.56764984 -155.96051025 135.64665222 C-154.93936839 125.67113435 -153.41002603 115.78536319 -151.76074219 105.89672852 C-151.24901606 102.80655824 -150.76090915 99.71321795 -150.2734375 96.61914062 C-146.60262292 74.01434316 -140.34967551 53.50348373 -125 36 C-124.40960938 35.26652344 -123.81921875 34.53304687 -123.2109375 33.77734375 C-104.49953217 11.20422285 -75.74418117 0.4965286 -47.30688477 -2.81689453 C-31.55096481 -4.06749671 -15.35952631 -3.91856767 0 0 Z " fill="#FCFDFD" transform="translate(499,80)"/>
<path d="M0 0 C2.63055398 2.63055398 2.54547394 4.33034551 3.06567383 7.9987793 C3.24974792 9.27003159 3.43382202 10.54128387 3.62347412 11.85105896 C3.81830571 13.25873567 4.01281508 14.666457 4.20703125 16.07421875 C4.41442528 17.53585023 4.62238331 18.99740177 4.83087158 20.45887756 C5.38822031 24.38638474 5.93350691 28.31547439 6.4752388 32.24516296 C6.81179926 34.68242546 7.15122246 37.11927363 7.49142456 39.55603027 C10.28476239 59.59072054 12.93910697 79.63152704 15.0625 99.75 C15.1602774 100.66735931 15.25805481 101.58471863 15.35879517 102.52987671 C17.60281695 123.83755916 18.23463437 145.05461507 18.29516602 166.47094727 C18.30406594 169.28757067 18.3250831 172.10370725 18.35668945 174.92016602 C18.63594909 200.39238348 17.20921128 221.40594579 -1 241 C-17.72178917 257.91119454 -41.4875481 269.82003775 -65.43798828 270.24194336 C-87.73988254 270.31965851 -109.33262314 264.75363679 -131 260 C-129.70631176 255.84064413 -128.13866795 252.0730333 -126.12890625 248.2109375 C-125.55930176 247.11305908 -124.98969727 246.01518066 -124.40283203 244.8840332 C-123.79552246 243.72605225 -123.18821289 242.56807129 -122.5625 241.375 C-121.935918 240.17348231 -121.30945421 238.97190297 -120.68310547 237.77026367 C-115.27815928 227.42752645 -109.69190937 217.18735615 -104 207 C-100.88647004 208.3495591 -99.12749799 209.73174769 -97.0546875 212.40625 C-96.27544922 213.39818359 -96.27544922 213.39818359 -95.48046875 214.41015625 C-94.95066406 215.09980469 -94.42085938 215.78945313 -93.875 216.5 C-92.81082519 217.86530822 -91.7457593 219.22992249 -90.6796875 220.59375 C-90.21288574 221.19896484 -89.74608398 221.80417969 -89.26513672 222.42773438 C-87.94230524 224.12943768 -87.94230524 224.12943768 -86 226 C-86.34893311 225.44127197 -86.69786621 224.88254395 -87.05737305 224.30688477 C-88.63319989 221.74381842 -90.16001904 219.15464433 -91.6875 216.5625 C-92.23728516 215.68400391 -92.78707031 214.80550781 -93.35351562 213.90039062 C-97.10819385 207.41938553 -97.10819385 207.41938553 -96.82958984 203.7644043 C-96.0602457 201.39820193 -95.07734252 199.24260795 -94 197 C-93.26366522 195.11285537 -92.54068285 193.22046902 -91.828125 191.32421875 C-91.21432983 189.745802 -91.21432983 189.745802 -90.58813477 188.13549805 C-85.20786337 174.27204742 -80.31276172 160.27796872 -75.5625 146.1875 C-58.27953328 95.01081852 -58.27953328 95.01081852 -47 72 C-46.58427734 71.14937988 -46.16855469 70.29875977 -45.74023438 69.42236328 C-37.6080007 52.96211993 -28.02180974 37.92944184 -16.6640625 23.51953125 C-11.48832079 16.8150473 -6.86996887 9.67845663 -2.14819336 2.65136719 C-1 1 -1 1 0 0 Z " fill="#FCFDFD" transform="translate(574,530)"/>
<path d="M0 0 C5.0321407 4.3605753 7.73794469 9.52883298 10.8125 15.375 C11.34238525 16.36814209 11.87227051 17.36128418 12.41821289 18.38452148 C13.4756931 20.3674376 14.53005413 22.3520208 15.58105469 24.33837891 C16.73064182 26.49474487 17.90128515 28.63341041 19.1015625 30.76171875 C36.48430016 62.01366199 48.33012389 96.50829932 60.375 130.0625 C60.71013611 130.9930722 61.04527222 131.92364441 61.39056396 132.88241577 C62.33640344 135.51466629 63.27506573 138.14934765 64.2109375 140.78515625 C64.49457153 141.57405243 64.77820557 142.36294861 65.07043457 143.17575073 C66.14944086 146.23889949 67 148.7270482 67 152 C66.01 152 65.02 152 64 152 C64 151.34 64 150.68 64 150 C61.69 149.34 59.38 148.68 57 148 C57 147.34 57 146.68 57 146 C56.21109375 145.77054688 55.4221875 145.54109375 54.609375 145.3046875 C49.06041724 143.29889541 43.93365506 140.50786201 38.6953125 137.80859375 C34.51503364 135.68010314 30.35799752 133.69342065 25.984375 131.9921875 C25.16590088 131.66452393 24.34742676 131.33686035 23.50415039 130.99926758 C21.8059342 130.32160365 20.09885977 129.66580508 18.38452148 129.0300293 C10.7423622 125.81981844 7.96448741 121.17595074 4.3125 113.9375 C3.73363037 112.84783936 3.15476074 111.75817871 2.55834961 110.63549805 C1.32438764 108.30813114 0.10138437 105.97793446 -1.10742188 103.63769531 C-3.02223287 99.93993156 -4.99747207 96.27660139 -6.984375 92.6171875 C-10.69649255 85.7656488 -14.37882955 78.90019097 -18 72 C-18.33090637 71.38638611 -18.66181274 70.77277222 -19.00274658 70.14056396 C-20.0163109 68.26054915 -21.01137336 66.37165365 -22.00390625 64.48046875 C-22.60146729 63.35922607 -23.19902832 62.2379834 -23.81469727 61.08276367 C-25.96685686 55.48537557 -23.50275045 51.52238297 -21.19140625 46.25 C-20.76747337 45.27915466 -20.76747337 45.27915466 -20.3349762 44.28869629 C-19.41625318 42.19002888 -18.48977898 40.0948995 -17.5625 38 C-16.92882377 36.55926675 -16.29519773 35.11851143 -15.66162109 33.67773438 C-10.66212386 22.34515799 -5.43902081 11.12868775 0 0 Z " fill="#FBFDFD" transform="translate(507,369)"/>
<path d="M0 0 C5.29443668 0.81037296 7.55708218 4.08721612 10.9453125 8.02734375 C11.88310547 9.07148437 11.88310547 9.07148437 12.83984375 10.13671875 C14.09586911 11.5409707 15.33949214 12.95641687 16.5703125 14.3828125 C17.85282493 15.84968609 19.16733654 17.28902441 20.5078125 18.703125 C21.48234375 19.74533203 21.48234375 19.74533203 22.4765625 20.80859375 C23.07017578 21.42798828 23.66378906 22.04738281 24.27539062 22.68554688 C25.4453125 24.52734375 25.4453125 24.52734375 25.23632812 26.65454102 C24.14471156 29.23904432 22.67925124 30.27052197 20.4453125 31.96484375 C19.54296875 32.65320313 18.640625 33.3415625 17.7109375 34.05078125 C17.19724609 34.43717773 16.68355469 34.82357422 16.15429688 35.22167969 C14.24246583 36.68231861 12.36783359 38.18460731 10.4921875 39.69140625 C-3.23709271 50.61411358 -17.22887671 60.32859866 -35.5546875 58.52734375 C-59.91455388 53.54945801 -81.80726501 38.56654639 -102.5546875 25.52734375 C-101.46332157 17.46981229 -100.27636806 9.47637955 -98.5546875 1.52734375 C-97.92941162 1.61822266 -97.30413574 1.70910156 -96.65991211 1.80273438 C-82.93178726 3.73714633 -69.46606214 4.82460884 -55.6171875 4.77734375 C-54.5933345 4.77577271 -54.5933345 4.77577271 -53.54879761 4.77416992 C-45.93578149 4.95411416 -45.93578149 4.95411416 -38.5546875 3.52734375 C-36.03067626 3.34351403 -33.51939465 3.20114562 -30.9921875 3.08984375 C-23.85721631 2.73193566 -16.79731439 2.07216006 -9.70874023 1.18774414 C-8.31318248 1.01871646 -6.91568032 0.86488654 -5.51660156 0.72802734 C-3.67141863 0.53928414 -1.83473136 0.27218542 0 0 Z " fill="#FBFDFD" transform="translate(384.5546875,784.47265625)"/>
<path d="M0 0 C4.84392897 10.28277846 9.10864276 20.80599296 13.4375 31.3125 C14.91415913 34.89242584 16.39238385 38.47170211 17.87109375 42.05078125 C18.4017897 43.33844894 18.4017897 43.33844894 18.94320679 44.65213013 C20.55414129 48.55129775 22.18069755 52.44090263 23.87158203 56.30615234 C24.15469742 56.95448532 24.43781281 57.6028183 24.72950745 58.27079773 C25.47719866 59.9734843 26.23254381 61.67280424 26.98852539 63.37182617 C28 66 28 66 28 69 C10.32707586 71.97782634 -7.01155926 73.4037409 -24.9375 73.375 C-25.81879578 73.3764502 -26.70009155 73.37790039 -27.60809326 73.37939453 C-56.25188772 73.37405614 -56.25188772 73.37405614 -63 70 C-61.72232904 63.5976881 -59.94211507 57.76663549 -57.515625 51.71484375 C-57.17754822 50.85548721 -56.83947144 49.99613068 -56.4911499 49.11073303 C-55.41700166 46.3838103 -54.33389679 43.66056063 -53.25 40.9375 C-51.83626518 37.36417892 -50.42600744 33.78948907 -49.015625 30.21484375 C-48.50328308 28.91938126 -48.50328308 28.91938126 -47.98059082 27.5977478 C-44.890345 19.76751265 -41.92056932 11.89488188 -39 4 C-38.20827393 3.91435791 -37.41654785 3.82871582 -36.60083008 3.74047852 C-33.00446415 3.35013642 -29.4084829 2.95635447 -25.8125 2.5625 C-24.56662109 2.42779297 -23.32074219 2.29308594 -22.03710938 2.15429688 C-20.83505859 2.02216797 -19.63300781 1.89003906 -18.39453125 1.75390625 C-17.28956299 1.63345947 -16.18459473 1.5130127 -15.04614258 1.38891602 C-12.05240946 1.04502131 -12.05240946 1.04502131 -9.33862305 0.45678711 C-6.20902241 -0.1544962 -3.17924775 -0.06233819 0 0 Z " fill="#FBFDFD" transform="translate(355,713)"/>
<path d="M0 0 C6.84286455 5.61037863 11.61194619 12.53133792 12.70703125 21.45703125 C13.48480988 30.77840899 12.85592588 38.65551286 7.3046875 46.41796875 C1.70202661 52.69185307 -6.94939381 57.33792284 -15.29296875 58.45703125 C-25.97869709 59.04255061 -34.76705517 59.22352821 -43.48046875 52.39453125 C-49.2126623 47.09112384 -52.76308925 39.8166321 -53.53125 32.046875 C-53.85799771 20.36994386 -49.92344334 12.09816473 -42.29296875 3.45703125 C-41.84308594 2.86792969 -41.39320313 2.27882812 -40.9296875 1.671875 C-31.56559585 -9.57055952 -10.99283413 -7.39722228 0 0 Z " fill="#88A9C1" transform="translate(281.29296875,158.54296875)"/>
<path d="M0 0 C6.73217038 4.96731322 10.30408238 10.82973019 12 19 C12.99212074 28.46505996 11.76694467 36.77354895 7.3125 45.1875 C1.18390019 52.64120247 -4.90938955 57.26182794 -14.6640625 58.27734375 C-26.22014115 58.68424793 -35.53685408 54.94860421 -44.01171875 47.1484375 C-49.2440024 41.64192515 -51.68042199 36.18356673 -52.2578125 28.625 C-51.58886105 19.21913715 -44.56536731 10.43347377 -38 4 C-37.4225 3.42378906 -36.845 2.84757813 -36.25 2.25390625 C-26.76465315 -6.57508848 -10.87507378 -6.66475876 0 0 Z " fill="#88AAC1" transform="translate(419,159)"/>
<path d="M0 0 C2.31216043 3.46824064 3.11117593 6.82272641 4.0625 10.8125 C4.23587891 11.51181641 4.40925781 12.21113281 4.58789062 12.93164062 C10.71597577 38.03096255 6.46077112 62.76303166 -1 87 C-4.28262131 83.91081783 -6.28312024 80.29314434 -8.4375 76.375 C-8.86853027 75.59157227 -9.29956055 74.80814453 -9.74365234 74.00097656 C-17.7111158 59.31584784 -25.03570722 44.31344312 -30.8125 28.625 C-31.15619629 27.6978418 -31.49989258 26.77068359 -31.85400391 25.81542969 C-34.12820165 19.38460494 -34.12820165 19.38460494 -33 16 C-31.37524414 15.05175781 -31.37524414 15.05175781 -29.22265625 14.203125 C-23.14566679 11.67455796 -17.31333973 8.71094154 -11.4375 5.75 C-10.33341797 5.19570313 -9.22933594 4.64140625 -8.09179688 4.0703125 C-5.39360285 2.71537524 -2.69636731 1.35856782 0 0 Z " fill="#FBFDFD" transform="translate(173,383)"/>
<path d="M0 0 C5.65178116 0.47098176 10.68255183 2.08282481 16 4 C7.53880414 31.87217461 -7.50720702 56.37747859 -29 76 C-29.33 76 -29.66 76 -30 76 C-30.77277121 48.70572084 -17.11194391 22.16851889 -1 1 C-0.67 0.67 -0.34 0.34 0 0 Z " fill="#FAFCFC" transform="translate(466,366)"/>
<path d="M0 0 C3.51085268 0.24569503 4.17705868 0.73069763 7.0625 3.125 C9.74561506 6.96321884 10.44026498 11.06077345 10.125 15.6875 C8.78998121 18.73897152 8.10126566 20.19936717 5.125 21.6875 C1.75 22.0625 1.75 22.0625 -1.875 21.6875 C-5.43427646 18.12822354 -7.02474803 15.34582705 -7.125 10.375 C-7.00916623 4.39025527 -6.41719582 1.13853474 0 0 Z " fill="#F8FAFB" transform="translate(535.875,525.3125)"/>
<path d="M0 0 C0.54298306 6.5157967 -0.11622983 11.58350448 -4 17 C-7.31371 19.20914 -8.3446021 19.22481553 -12.1875 19.125 C-13.08855469 19.10695313 -13.98960937 19.08890625 -14.91796875 19.0703125 C-15.60503906 19.04710937 -16.29210937 19.02390625 -17 19 C-18.86726081 15.26547837 -18.54801327 11.06650753 -18 7 C-16.67110601 4.13027635 -15.51136979 3.12920482 -13 1 C-8.72296978 -0.30170485 -4.45132102 -0.08902642 0 0 Z " fill="#F7FAFB" transform="translate(176,342)"/>
<path d="M0 0 C0 0.33 0 0.66 0 1 C-5.94 1.33 -11.88 1.66 -18 2 C-18 2.33 -18 2.66 -18 3 C-58.92 3 -99.84 3 -142 3 C-142 2.67 -142 2.34 -142 2 C-128.78302397 1.20011656 -115.60269726 0.80612582 -102.36328125 0.68359375 C-100.42685124 0.66290076 -98.49042448 0.64190243 -96.55400085 0.62062073 C-92.51771089 0.57707598 -88.48140654 0.53612844 -84.44506836 0.49731445 C-79.37511786 0.44850675 -74.3052352 0.39479523 -69.23535347 0.33934593 C-46.15627065 0.08798873 -23.08049091 -0.07275263 0 0 Z " fill="#A6BFD1" transform="translate(480,631)"/>
<path d="M0 0 C0.28782761 3.05097265 0.42004236 5.95738549 0 9 C-2.0625 11.125 -2.0625 11.125 -5 12 C-11.32142857 11.67857143 -11.32142857 11.67857143 -14 9 C-14.55086121 5.9441699 -14.5475377 3.0561543 -14 0 C-9.28410542 -4.58115473 -5.21238122 -2.67781953 0 0 Z " fill="#F7F9FA" transform="translate(338,264)"/>
<path d="M0 0 C0.99 0.66 1.98 1.32 3 2 C3.29296875 4.1640625 3.29296875 4.1640625 3.1875 6.625 C3.16042969 7.44226563 3.13335937 8.25953125 3.10546875 9.1015625 C3.07066406 9.72804688 3.03585937 10.35453125 3 11 C1.68 11.33 0.36 11.66 -1 12 C-1 12.66 -1 13.32 -1 14 C-3.94263938 14.25222623 -5.99663784 14.00112072 -8.8125 13.0625 C-11 11 -11 11 -11.3125 8.796875 C-11.3125 6.51073984 -11.21466065 4.27540288 -11 2 C-6.91401181 -0.37557453 -4.57160397 -1.60623923 0 0 Z " fill="#F8FAFB" transform="translate(478,327)"/>
<path d="M0 0 C0 0.33 0 0.66 0 1 C-7.92038648 2.8218181 -15.85429234 4.38524779 -23.875 5.6875 C-25.05026245 5.88436401 -25.05026245 5.88436401 -26.24926758 6.08520508 C-31.22810491 6.87133729 -35.95962681 7.12055562 -41 7 C-41 6.67 -41 6.34 -41 6 C-34.07 5.01 -34.07 5.01 -27 4 C-27.33 3.34 -27.66 2.68 -28 2 C-24.64637391 1.6610769 -21.29202668 1.32988036 -17.9375 1 C-16.99455078 0.90460937 -16.05160156 0.80921875 -15.08007812 0.7109375 C-10.02487778 0.21774722 -5.07896392 -0.11270932 0 0 Z " fill="#C2D3DF" transform="translate(459,702)"/>
<path d="M0 0 C0 0.66 0 1.32 0 2 C-3.62236675 2.54032052 -7.24809962 3.05357832 -10.875 3.5625 C-11.88820313 3.71396484 -12.90140625 3.86542969 -13.9453125 4.02148438 C-20.50816734 4.92598039 -26.44665034 5.00198845 -33 4 C-33 3.67 -33 3.34 -33 3 C-29.18870032 2.49056215 -25.37580386 1.9941935 -21.5625 1.5 C-20.49322266 1.35691406 -19.42394531 1.21382812 -18.32226562 1.06640625 C-12.15456951 0.2742251 -6.2177959 -0.15691598 0 0 Z " fill="#A5BED0" transform="translate(348,712)"/>
<path d="M0 0 C0 0.33 0 0.66 0 1 C-3.14408784 1.51139597 -6.29048573 2.00696036 -9.4375 2.5 C-10.31599609 2.64308594 -11.19449219 2.78617188 -12.09960938 2.93359375 C-17.79859195 3.8168309 -23.23310691 4.4090801 -29 4 C-29.66 3.01 -30.32 2.02 -31 1 C-20.66192051 -0.1555538 -10.38437692 -0.09776087 0 0 Z " fill="#94B2C8" transform="translate(438,705)"/>
<path d="M0 0 C11.22 0 22.44 0 34 0 C29.5 3.375 29.5 3.375 26 4 C26.33 3.01 26.66 2.02 27 1 C18.09 1 9.18 1 0 1 C0 0.67 0 0.34 0 0 Z " fill="#CDDCE5" transform="translate(434,312)"/>
<path d="M0 0 C-4.95 1.485 -4.95 1.485 -10 3 C-9.67 3.66 -9.34 4.32 -9 5 C-13.95 5.33 -18.9 5.66 -24 6 C-20.32798686 3.55199124 -16.76419546 2.55078304 -12.5625 1.3125 C-11.79873047 1.07466797 -11.03496094 0.83683594 -10.24804688 0.59179688 C-9.13719727 0.26211914 -9.13719727 0.26211914 -8.00390625 -0.07421875 C-6.99565796 -0.37718872 -6.99565796 -0.37718872 -5.96704102 -0.6862793 C-4 -1 -4 -1 0 0 Z " fill="#A6BFD1" transform="translate(249,730)"/>
<path d="M0 0 C0.12375 0.639375 0.2475 1.27875 0.375 1.9375 C0.58125 2.618125 0.7875 3.29875 1 4 C1.66 4.33 2.32 4.66 3 5 C2.01 10.61 1.02 16.22 0 22 C-0.33 22 -0.66 22 -1 22 C-1.12886183 14.59760355 -0.79725902 7.36040917 0 0 Z " fill="#9DB9CC" transform="translate(95,716)"/>
<path d="M0 0 C-1.32 0.33 -2.64 0.66 -4 1 C-4 1.99 -4 2.98 -4 4 C-7.63 4.33 -11.26 4.66 -15 5 C-14.34 3.68 -13.68 2.36 -13 1 C-8.62015065 0.13839029 -4.46429222 -0.13950913 0 0 Z " fill="#99B6CA" transform="translate(374,783)"/>
<path d="M0 0 C3.63 0 7.26 0 11 0 C11 0.66 11 1.32 11 2 C7.7 2.33 4.4 2.66 1 3 C0.67 2.01 0.34 1.02 0 0 Z " fill="#DEE7EE" transform="translate(270,459)"/>
<path d="M0 0 C0.66 0.33 1.32 0.66 2 1 C1.01 2.32 0.02 3.64 -1 5 C-0.34 5.66 0.32 6.32 1 7 C-1.31 6.67 -3.62 6.34 -6 6 C-6 5.34 -6 4.68 -6 4 C-4.36368108 2.95107762 -2.69514137 1.95093297 -1 1 C-0.67 0.67 -0.34 0.34 0 0 Z " fill="#D4E0E9" transform="translate(184,329)"/>
</svg>
